%TF.GenerationSoftware,KiCad,Pcbnew,7.0.9*%
%TF.CreationDate,2023-12-18T12:46:53-05:00*%
%TF.ProjectId,Coaster_KiCard,436f6173-7465-4725-9f4b-69436172642e,rev?*%
%TF.SameCoordinates,Original*%
%TF.FileFunction,Copper,L1,Top*%
%TF.FilePolarity,Positive*%
%FSLAX46Y46*%
G04 Gerber Fmt 4.6, Leading zero omitted, Abs format (unit mm)*
G04 Created by KiCad (PCBNEW 7.0.9) date 2023-12-18 12:46:53*
%MOMM*%
%LPD*%
G01*
G04 APERTURE LIST*
G04 Aperture macros list*
%AMRoundRect*
0 Rectangle with rounded corners*
0 $1 Rounding radius*
0 $2 $3 $4 $5 $6 $7 $8 $9 X,Y pos of 4 corners*
0 Add a 4 corners polygon primitive as box body*
4,1,4,$2,$3,$4,$5,$6,$7,$8,$9,$2,$3,0*
0 Add four circle primitives for the rounded corners*
1,1,$1+$1,$2,$3*
1,1,$1+$1,$4,$5*
1,1,$1+$1,$6,$7*
1,1,$1+$1,$8,$9*
0 Add four rect primitives between the rounded corners*
20,1,$1+$1,$2,$3,$4,$5,0*
20,1,$1+$1,$4,$5,$6,$7,0*
20,1,$1+$1,$6,$7,$8,$9,0*
20,1,$1+$1,$8,$9,$2,$3,0*%
G04 Aperture macros list end*
%TA.AperFunction,SMDPad,CuDef*%
%ADD10R,1.900000X0.875000*%
%TD*%
%TA.AperFunction,SMDPad,CuDef*%
%ADD11R,1.550000X1.425000*%
%TD*%
%TA.AperFunction,ComponentPad*%
%ADD12C,2.145000*%
%TD*%
%TA.AperFunction,SMDPad,CuDef*%
%ADD13R,1.380000X0.450000*%
%TD*%
%TA.AperFunction,SMDPad,CuDef*%
%ADD14R,0.900000X1.500000*%
%TD*%
%TA.AperFunction,SMDPad,CuDef*%
%ADD15R,1.500000X0.900000*%
%TD*%
%TA.AperFunction,SMDPad,CuDef*%
%ADD16R,0.900000X0.900000*%
%TD*%
%TA.AperFunction,SMDPad,CuDef*%
%ADD17RoundRect,0.150000X-0.512500X-0.150000X0.512500X-0.150000X0.512500X0.150000X-0.512500X0.150000X0*%
%TD*%
%TA.AperFunction,SMDPad,CuDef*%
%ADD18RoundRect,0.243750X0.243750X0.456250X-0.243750X0.456250X-0.243750X-0.456250X0.243750X-0.456250X0*%
%TD*%
%TA.AperFunction,SMDPad,CuDef*%
%ADD19R,0.650000X0.400000*%
%TD*%
%TA.AperFunction,SMDPad,CuDef*%
%ADD20RoundRect,0.135000X0.185000X-0.135000X0.185000X0.135000X-0.185000X0.135000X-0.185000X-0.135000X0*%
%TD*%
%TA.AperFunction,SMDPad,CuDef*%
%ADD21R,3.500000X1.000000*%
%TD*%
%TA.AperFunction,SMDPad,CuDef*%
%ADD22R,3.400000X1.500000*%
%TD*%
%TA.AperFunction,SMDPad,CuDef*%
%ADD23R,0.805000X0.350000*%
%TD*%
%TA.AperFunction,SMDPad,CuDef*%
%ADD24R,0.400000X0.805000*%
%TD*%
%TA.AperFunction,SMDPad,CuDef*%
%ADD25RoundRect,0.135000X-0.185000X0.135000X-0.185000X-0.135000X0.185000X-0.135000X0.185000X0.135000X0*%
%TD*%
%TA.AperFunction,SMDPad,CuDef*%
%ADD26R,1.000000X0.900000*%
%TD*%
%TA.AperFunction,SMDPad,CuDef*%
%ADD27RoundRect,0.135000X0.135000X0.185000X-0.135000X0.185000X-0.135000X-0.185000X0.135000X-0.185000X0*%
%TD*%
%TA.AperFunction,SMDPad,CuDef*%
%ADD28RoundRect,0.225000X-0.250000X0.225000X-0.250000X-0.225000X0.250000X-0.225000X0.250000X0.225000X0*%
%TD*%
%TA.AperFunction,SMDPad,CuDef*%
%ADD29RoundRect,0.225000X-0.225000X-0.250000X0.225000X-0.250000X0.225000X0.250000X-0.225000X0.250000X0*%
%TD*%
%TA.AperFunction,SMDPad,CuDef*%
%ADD30RoundRect,0.140000X-0.170000X0.140000X-0.170000X-0.140000X0.170000X-0.140000X0.170000X0.140000X0*%
%TD*%
%TA.AperFunction,SMDPad,CuDef*%
%ADD31RoundRect,0.243750X-0.456250X0.243750X-0.456250X-0.243750X0.456250X-0.243750X0.456250X0.243750X0*%
%TD*%
%TA.AperFunction,SMDPad,CuDef*%
%ADD32RoundRect,0.250000X0.300000X0.300000X-0.300000X0.300000X-0.300000X-0.300000X0.300000X-0.300000X0*%
%TD*%
%TA.AperFunction,SMDPad,CuDef*%
%ADD33RoundRect,0.225000X0.250000X-0.225000X0.250000X0.225000X-0.250000X0.225000X-0.250000X-0.225000X0*%
%TD*%
%TA.AperFunction,SMDPad,CuDef*%
%ADD34RoundRect,0.150000X-0.587500X-0.150000X0.587500X-0.150000X0.587500X0.150000X-0.587500X0.150000X0*%
%TD*%
%TA.AperFunction,SMDPad,CuDef*%
%ADD35RoundRect,0.135000X-0.135000X-0.185000X0.135000X-0.185000X0.135000X0.185000X-0.135000X0.185000X0*%
%TD*%
%TA.AperFunction,SMDPad,CuDef*%
%ADD36R,2.600000X2.600000*%
%TD*%
%TA.AperFunction,SMDPad,CuDef*%
%ADD37RoundRect,0.062500X-0.062500X-0.350000X0.062500X-0.350000X0.062500X0.350000X-0.062500X0.350000X0*%
%TD*%
%TA.AperFunction,SMDPad,CuDef*%
%ADD38RoundRect,0.062500X-0.350000X-0.062500X0.350000X-0.062500X0.350000X0.062500X-0.350000X0.062500X0*%
%TD*%
%TA.AperFunction,ViaPad*%
%ADD39C,0.800000*%
%TD*%
%TA.AperFunction,ViaPad*%
%ADD40C,0.700000*%
%TD*%
%TA.AperFunction,Conductor*%
%ADD41C,0.500000*%
%TD*%
%TA.AperFunction,Conductor*%
%ADD42C,0.300000*%
%TD*%
%TA.AperFunction,Conductor*%
%ADD43C,0.250000*%
%TD*%
G04 APERTURE END LIST*
D10*
%TO.P,J3,MP4,MP4*%
%TO.N,unconnected-(J3-PadMP4)*%
X27250000Y-84812000D03*
%TO.P,J3,MP3,MP3*%
%TO.N,unconnected-(J3-PadMP3)*%
X27250000Y-87188000D03*
D11*
%TO.P,J3,MP2,MP2*%
%TO.N,unconnected-(J3-PadMP2)*%
X29825000Y-83513000D03*
%TO.P,J3,MP1,MP1*%
%TO.N,unconnected-(J3-PadMP1)*%
X29825000Y-88487000D03*
D12*
%TO.P,J3,MH2,MH2*%
%TO.N,unconnected-(J3-PadMH2)*%
X27250000Y-82050000D03*
%TO.P,J3,MH1,MH1*%
%TO.N,unconnected-(J3-PadMH1)*%
X27250000Y-89950000D03*
D13*
%TO.P,J3,5,GND*%
%TO.N,GND*%
X29910000Y-84700000D03*
%TO.P,J3,4,ID*%
%TO.N,unconnected-(J3-ID-Pad4)*%
X29910000Y-85350000D03*
%TO.P,J3,3,D+*%
%TO.N,Net-(J3-D+)*%
X29910000Y-86000000D03*
%TO.P,J3,2,D-*%
%TO.N,Net-(J3-D-)*%
X29910000Y-86650000D03*
%TO.P,J3,1,VBUS*%
%TO.N,VBUS*%
X29910000Y-87300000D03*
%TD*%
D14*
%TO.P,IC1,1,GND_1*%
%TO.N,GND*%
X55260000Y-50365000D03*
%TO.P,IC1,2,3V3*%
%TO.N,+3.3V*%
X53990000Y-50365000D03*
%TO.P,IC1,3,EN*%
%TO.N,/RESET*%
X52720000Y-50365000D03*
%TO.P,IC1,4,SENSOR_VP*%
%TO.N,/A4_IO36*%
X51450000Y-50365000D03*
%TO.P,IC1,5,SENSOR_VN*%
%TO.N,/A3_I39*%
X50180000Y-50365000D03*
%TO.P,IC1,6,IO34*%
%TO.N,/GPIO34*%
X48910000Y-50365000D03*
%TO.P,IC1,7,IO35*%
%TO.N,/GPIO35*%
X47640000Y-50365000D03*
%TO.P,IC1,8,IO32*%
%TO.N,/GPIO32*%
X46370000Y-50365000D03*
%TO.P,IC1,9,IO33*%
%TO.N,/GPIO33*%
X45100000Y-50365000D03*
%TO.P,IC1,10,IO25*%
%TO.N,/GPIO25*%
X43830000Y-50365000D03*
%TO.P,IC1,11,IO26*%
%TO.N,/GPIO26*%
X42560000Y-50365000D03*
%TO.P,IC1,12,IO27*%
%TO.N,/GPIO27*%
X41290000Y-50365000D03*
%TO.P,IC1,13,IO14*%
%TO.N,/GPIO14*%
X40020000Y-50365000D03*
%TO.P,IC1,14,IO12*%
%TO.N,/GPIO12*%
X38750000Y-50365000D03*
D15*
%TO.P,IC1,15,GND_2*%
%TO.N,GND*%
X37500000Y-53400000D03*
%TO.P,IC1,16,IO13*%
%TO.N,/GPIO13*%
X37500000Y-54670000D03*
%TO.P,IC1,17,NC_1*%
%TO.N,unconnected-(IC1-NC_1-Pad17)*%
X37500000Y-55940000D03*
%TO.P,IC1,18,NC_2*%
%TO.N,unconnected-(IC1-NC_2-Pad18)*%
X37500000Y-57210000D03*
%TO.P,IC1,19,NC_3*%
%TO.N,unconnected-(IC1-NC_3-Pad19)*%
X37500000Y-58480000D03*
%TO.P,IC1,20,NC_4*%
%TO.N,unconnected-(IC1-NC_4-Pad20)*%
X37500000Y-59750000D03*
%TO.P,IC1,21,NC_5*%
%TO.N,unconnected-(IC1-NC_5-Pad21)*%
X37500000Y-61020000D03*
%TO.P,IC1,22,NC_6*%
%TO.N,unconnected-(IC1-NC_6-Pad22)*%
X37500000Y-62290000D03*
%TO.P,IC1,23,IO15*%
%TO.N,/GPIO15*%
X37500000Y-63560000D03*
%TO.P,IC1,24,IO2*%
%TO.N,/GPIO2*%
X37500000Y-64830000D03*
D14*
%TO.P,IC1,25,IO0*%
%TO.N,/GPIO0*%
X38750000Y-67865000D03*
%TO.P,IC1,26,IO4*%
%TO.N,/GPIO4*%
X40020000Y-67865000D03*
%TO.P,IC1,27,IO16*%
%TO.N,/GPIO16*%
X41290000Y-67865000D03*
%TO.P,IC1,28,IO17*%
%TO.N,/GPIO17*%
X42560000Y-67865000D03*
%TO.P,IC1,29,IO5*%
%TO.N,/GPIO5*%
X43830000Y-67865000D03*
%TO.P,IC1,30,IO18*%
%TO.N,/GPIO18*%
X45100000Y-67865000D03*
%TO.P,IC1,31,IO19*%
%TO.N,/GPIO19*%
X46370000Y-67865000D03*
%TO.P,IC1,32,NC_7*%
%TO.N,unconnected-(IC1-NC_7-Pad32)*%
X47640000Y-67865000D03*
%TO.P,IC1,33,IO21*%
%TO.N,/GPIO21*%
X48910000Y-67865000D03*
%TO.P,IC1,34,RXD0*%
%TO.N,/RXD0*%
X50180000Y-67865000D03*
%TO.P,IC1,35,TXD0*%
%TO.N,/TXD0*%
X51450000Y-67865000D03*
%TO.P,IC1,36,IO22*%
%TO.N,/SCL*%
X52720000Y-67865000D03*
%TO.P,IC1,37,IO23*%
%TO.N,/SDA*%
X53990000Y-67865000D03*
%TO.P,IC1,38,GND_3*%
%TO.N,GND*%
X55260000Y-67865000D03*
D16*
%TO.P,IC1,39,GND_4*%
%TO.N,unconnected-(IC1-GND_4-Pad39)*%
X48940000Y-56215000D03*
%TO.P,IC1,40,GND_5*%
%TO.N,unconnected-(IC1-GND_5-Pad40)*%
X47540000Y-56215000D03*
%TO.P,IC1,41,GND_6*%
%TO.N,unconnected-(IC1-GND_6-Pad41)*%
X46140000Y-56215000D03*
%TO.P,IC1,42,GND_7*%
%TO.N,unconnected-(IC1-GND_7-Pad42)*%
X46140000Y-57615000D03*
%TO.P,IC1,43,GND_8*%
%TO.N,unconnected-(IC1-GND_8-Pad43)*%
X46140000Y-59015000D03*
%TO.P,IC1,44,GND_9*%
%TO.N,unconnected-(IC1-GND_9-Pad44)*%
X47540000Y-59015000D03*
%TO.P,IC1,45,GND_10*%
%TO.N,unconnected-(IC1-GND_10-Pad45)*%
X48940000Y-59015000D03*
%TO.P,IC1,46,GND_11*%
%TO.N,unconnected-(IC1-GND_11-Pad46)*%
X48940000Y-57615000D03*
%TO.P,IC1,47,GND_12*%
%TO.N,unconnected-(IC1-GND_12-Pad47)*%
X47540000Y-57615000D03*
%TD*%
D17*
%TO.P,U1,5,VOUT*%
%TO.N,+3.3V*%
X48025000Y-91500000D03*
%TO.P,U1,4,NC*%
%TO.N,unconnected-(U1-NC-Pad4)*%
X48025000Y-93400000D03*
%TO.P,U1,3,EN*%
%TO.N,Net-(U1-EN)*%
X45750000Y-93400000D03*
%TO.P,U1,2,GND*%
%TO.N,GND*%
X45750000Y-92450000D03*
%TO.P,U1,1,VIN*%
%TO.N,Net-(D1-K)*%
X45750000Y-91500000D03*
%TD*%
D18*
%TO.P,D2,2,A*%
%TO.N,Net-(D2-A)*%
X41312500Y-96500000D03*
%TO.P,D2,1,K*%
%TO.N,VBUS*%
X43187500Y-96500000D03*
%TD*%
D19*
%TO.P,Q2,6,C1*%
%TO.N,/GPIO0*%
X52700000Y-73010000D03*
%TO.P,Q2,5,B2*%
%TO.N,Net-(Q2B-B2)*%
X52700000Y-73660000D03*
%TO.P,Q2,4,E2*%
%TO.N,/RESET*%
X52700000Y-74310000D03*
%TO.P,Q2,3,C2*%
%TO.N,/RTS*%
X50800000Y-74310000D03*
%TO.P,Q2,2,B1*%
%TO.N,Net-(Q2A-B1)*%
X50800000Y-73660000D03*
%TO.P,Q2,1,E1*%
%TO.N,/DTR*%
X50800000Y-73010000D03*
%TD*%
D15*
%TO.P,D10,1,VDD*%
%TO.N,+3.3V*%
X72550000Y-118350000D03*
%TO.P,D10,2,DOUT*%
%TO.N,Net-(D10-DOUT)*%
X72550000Y-121650000D03*
%TO.P,D10,3,VSS*%
%TO.N,GND*%
X77450000Y-121650000D03*
%TO.P,D10,4,DIN*%
%TO.N,Net-(D10-DIN)*%
X77450000Y-118350000D03*
%TD*%
D20*
%TO.P,R1,2*%
%TO.N,GND*%
X32750000Y-87490000D03*
%TO.P,R1,1*%
%TO.N,VBUS*%
X32750000Y-88510000D03*
%TD*%
D21*
%TO.P,J1,1,1*%
%TO.N,GND*%
X32500000Y-98500000D03*
%TO.P,J1,2,2*%
%TO.N,-BATT*%
X32500000Y-100500000D03*
D22*
%TO.P,J1,3*%
%TO.N,N/C*%
X26950000Y-96150000D03*
%TO.P,J1,4*%
X26950000Y-102850000D03*
%TD*%
D23*
%TO.P,IC2,1,IR_ANODE*%
%TO.N,+3.3V*%
X73250000Y-73272000D03*
%TO.P,IC2,2,IR_CATHODE*%
%TO.N,unconnected-(IC2-IR_CATHODE-Pad2)*%
X73250000Y-74022000D03*
%TO.P,IC2,3,IR_CATHODE_*%
%TO.N,unconnected-(IC2-IR_CATHODE_-Pad3)*%
X73250000Y-74772000D03*
%TO.P,IC2,4,SDA*%
%TO.N,/SDA*%
X73250000Y-75522000D03*
%TO.P,IC2,5,SCL*%
%TO.N,/SCL*%
X73250000Y-76272000D03*
D24*
%TO.P,IC2,6,INT*%
%TO.N,unconnected-(IC2-INT-Pad6)*%
X74222000Y-76544000D03*
D23*
%TO.P,IC2,7,VDD*%
%TO.N,+3.3V*%
X76794000Y-76272000D03*
%TO.P,IC2,8,NC_1*%
%TO.N,unconnected-(IC2-NC_1-Pad8)*%
X76794000Y-75522000D03*
%TO.P,IC2,9,NC_2*%
%TO.N,unconnected-(IC2-NC_2-Pad9)*%
X76794000Y-74772000D03*
%TO.P,IC2,10,NC_3*%
%TO.N,unconnected-(IC2-NC_3-Pad10)*%
X76794000Y-74022000D03*
%TO.P,IC2,11,NC_4*%
%TO.N,unconnected-(IC2-NC_4-Pad11)*%
X76794000Y-73272000D03*
D24*
%TO.P,IC2,12,GND_1*%
%TO.N,GND*%
X74847000Y-73000000D03*
%TO.P,IC2,13,GND_2*%
X75022000Y-76544000D03*
%TD*%
D25*
%TO.P,R8,2*%
%TO.N,Net-(U3-STAT)*%
X38500000Y-97260000D03*
%TO.P,R8,1*%
%TO.N,Net-(D2-A)*%
X38500000Y-96240000D03*
%TD*%
D26*
%TO.P,S1,4,COM_2*%
%TO.N,unconnected-(S1-COM_2-Pad4)*%
X59000000Y-102600000D03*
%TO.P,S1,3,NO_2*%
%TO.N,unconnected-(S1-NO_2-Pad3)*%
X57400000Y-102600000D03*
%TO.P,S1,2,NO_1*%
%TO.N,GND*%
X57400000Y-98500000D03*
%TO.P,S1,1,COM_1*%
%TO.N,/RESET*%
X59000000Y-98500000D03*
%TD*%
D27*
%TO.P,R3,2*%
%TO.N,/RESET*%
X61500000Y-98500000D03*
%TO.P,R3,1*%
%TO.N,+3.3V*%
X62520000Y-98500000D03*
%TD*%
D28*
%TO.P,C10,2*%
%TO.N,+3.3V*%
X78740000Y-70300000D03*
%TO.P,C10,1*%
%TO.N,GND*%
X78740000Y-68750000D03*
%TD*%
D15*
%TO.P,D11,1,VDD*%
%TO.N,+3.3V*%
X40850000Y-105200000D03*
%TO.P,D11,2,DOUT*%
%TO.N,unconnected-(D11-DOUT-Pad2)*%
X40850000Y-108500000D03*
%TO.P,D11,3,VSS*%
%TO.N,GND*%
X45750000Y-108500000D03*
%TO.P,D11,4,DIN*%
%TO.N,Net-(D10-DOUT)*%
X45750000Y-105200000D03*
%TD*%
%TO.P,D6,1,VDD*%
%TO.N,+3.3V*%
X72500000Y-28500000D03*
%TO.P,D6,2,DOUT*%
%TO.N,Net-(D6-DOUT)*%
X72500000Y-31800000D03*
%TO.P,D6,3,VSS*%
%TO.N,GND*%
X77400000Y-31800000D03*
%TO.P,D6,4,DIN*%
%TO.N,Net-(D5-DOUT)*%
X77400000Y-28500000D03*
%TD*%
D25*
%TO.P,R7,2*%
%TO.N,/GPIO35*%
X38250000Y-103100000D03*
%TO.P,R7,1*%
%TO.N,GND*%
X38250000Y-102080000D03*
%TD*%
D29*
%TO.P,C8,2*%
%TO.N,GND*%
X81025000Y-73000000D03*
%TO.P,C8,1*%
%TO.N,+3.3V*%
X79475000Y-73000000D03*
%TD*%
D28*
%TO.P,C2,2*%
%TO.N,GND*%
X51000000Y-93050000D03*
%TO.P,C2,1*%
%TO.N,+3.3V*%
X51000000Y-91500000D03*
%TD*%
D30*
%TO.P,C7,1*%
%TO.N,-BATT*%
X35750000Y-100250000D03*
%TO.P,C7,2*%
%TO.N,GND*%
X35750000Y-101210000D03*
%TD*%
D17*
%TO.P,U3,5,PROG*%
%TO.N,Net-(U3-PROG)*%
X43775000Y-98750000D03*
%TO.P,U3,4,V_{DD}*%
%TO.N,VBUS*%
X43775000Y-100650000D03*
%TO.P,U3,3,V_{BAT}*%
%TO.N,-BATT*%
X41500000Y-100650000D03*
%TO.P,U3,2,V_{SS}*%
%TO.N,GND*%
X41500000Y-99700000D03*
%TO.P,U3,1,STAT*%
%TO.N,Net-(U3-STAT)*%
X41500000Y-98750000D03*
%TD*%
D20*
%TO.P,R4,2*%
%TO.N,Net-(Q2A-B1)*%
X48750000Y-73740000D03*
%TO.P,R4,1*%
%TO.N,/RTS*%
X48750000Y-74760000D03*
%TD*%
D27*
%TO.P,R13,2*%
%TO.N,Net-(D4-DIN)*%
X35390000Y-73300000D03*
%TO.P,R13,1*%
%TO.N,/GPIO5*%
X36410000Y-73300000D03*
%TD*%
D20*
%TO.P,R11,2*%
%TO.N,+3.3V*%
X67250000Y-73740000D03*
%TO.P,R11,1*%
%TO.N,/SCL*%
X67250000Y-74760000D03*
%TD*%
D31*
%TO.P,D3,2,A*%
%TO.N,Net-(D3-A)*%
X32750000Y-56875000D03*
%TO.P,D3,1,K*%
%TO.N,GND*%
X32750000Y-55000000D03*
%TD*%
D32*
%TO.P,D1,2,A*%
%TO.N,VBUS*%
X36000000Y-89250000D03*
%TO.P,D1,1,K*%
%TO.N,Net-(D1-K)*%
X38800000Y-89250000D03*
%TD*%
D25*
%TO.P,R9,2*%
%TO.N,GND*%
X46250000Y-99770000D03*
%TO.P,R9,1*%
%TO.N,Net-(U3-PROG)*%
X46250000Y-98750000D03*
%TD*%
D15*
%TO.P,D5,1,VDD*%
%TO.N,+3.3V*%
X40750000Y-41450000D03*
%TO.P,D5,2,DOUT*%
%TO.N,Net-(D5-DOUT)*%
X40750000Y-44750000D03*
%TO.P,D5,3,VSS*%
%TO.N,GND*%
X45650000Y-44750000D03*
%TO.P,D5,4,DIN*%
%TO.N,Net-(D4-DOUT)*%
X45650000Y-41450000D03*
%TD*%
D33*
%TO.P,C6,2*%
%TO.N,GND*%
X42250000Y-82725000D03*
%TO.P,C6,1*%
%TO.N,+3.3V*%
X42250000Y-84275000D03*
%TD*%
D30*
%TO.P,C3,2*%
%TO.N,GND*%
X53750000Y-92460000D03*
%TO.P,C3,1*%
%TO.N,+3.3V*%
X53750000Y-91500000D03*
%TD*%
D28*
%TO.P,C9,2*%
%TO.N,+3.3V*%
X81280000Y-70275000D03*
%TO.P,C9,1*%
%TO.N,GND*%
X81280000Y-68725000D03*
%TD*%
%TO.P,C1,2*%
%TO.N,GND*%
X41250000Y-90800000D03*
%TO.P,C1,1*%
%TO.N,Net-(D1-K)*%
X41250000Y-89250000D03*
%TD*%
D34*
%TO.P,Q1,3,D*%
%TO.N,-BATT*%
X34625000Y-92950000D03*
%TO.P,Q1,2,S*%
%TO.N,Net-(D1-K)*%
X32750000Y-93900000D03*
%TO.P,Q1,1,G*%
%TO.N,VBUS*%
X32750000Y-92000000D03*
%TD*%
D35*
%TO.P,R2,2*%
%TO.N,Net-(U1-EN)*%
X44770000Y-89000000D03*
%TO.P,R2,1*%
%TO.N,Net-(D1-K)*%
X43750000Y-89000000D03*
%TD*%
D25*
%TO.P,R5,2*%
%TO.N,Net-(Q2B-B2)*%
X55750000Y-73760000D03*
%TO.P,R5,1*%
%TO.N,/DTR*%
X55750000Y-72740000D03*
%TD*%
D20*
%TO.P,R12,2*%
%TO.N,+3.3V*%
X70000000Y-73740000D03*
%TO.P,R12,1*%
%TO.N,/SDA*%
X70000000Y-74760000D03*
%TD*%
D36*
%TO.P,U2,25,GND*%
%TO.N,GND*%
X37250000Y-84187500D03*
D37*
%TO.P,U2,24,~{DCD}*%
%TO.N,unconnected-(U2-~{DCD}-Pad24)*%
X36000000Y-82250000D03*
%TO.P,U2,23,~{DTR}*%
%TO.N,/DTR*%
X36500000Y-82250000D03*
%TO.P,U2,22,~{DSR}*%
%TO.N,unconnected-(U2-~{DSR}-Pad22)*%
X37000000Y-82250000D03*
%TO.P,U2,21,TXD*%
%TO.N,/RXD0*%
X37500000Y-82250000D03*
%TO.P,U2,20,RXD*%
%TO.N,/TXD0*%
X38000000Y-82250000D03*
%TO.P,U2,19,~{RTS}*%
%TO.N,/RTS*%
X38500000Y-82250000D03*
D38*
%TO.P,U2,18,~{CTS}*%
%TO.N,unconnected-(U2-~{CTS}-Pad18)*%
X39187500Y-82937500D03*
%TO.P,U2,17,SUSPEND*%
%TO.N,unconnected-(U2-SUSPEND-Pad17)*%
X39187500Y-83437500D03*
%TO.P,U2,16,VPP*%
%TO.N,unconnected-(U2-VPP-Pad16)*%
X39187500Y-83937500D03*
%TO.P,U2,15,~{SUSPEND}*%
%TO.N,unconnected-(U2-~{SUSPEND}-Pad15)*%
X39187500Y-84437500D03*
%TO.P,U2,14,TXT/GPIO.0*%
%TO.N,unconnected-(U2-TXT{slash}GPIO.0-Pad14)*%
X39187500Y-84937500D03*
%TO.P,U2,13,RXT/GPIO.1*%
%TO.N,unconnected-(U2-RXT{slash}GPIO.1-Pad13)*%
X39187500Y-85437500D03*
D37*
%TO.P,U2,12,RS485/GPIO.2*%
%TO.N,unconnected-(U2-RS485{slash}GPIO.2-Pad12)*%
X38500000Y-86125000D03*
%TO.P,U2,11,GPIO.3*%
%TO.N,unconnected-(U2-GPIO.3-Pad11)*%
X38000000Y-86125000D03*
%TO.P,U2,10,NC*%
%TO.N,unconnected-(U2-NC-Pad10)*%
X37500000Y-86125000D03*
%TO.P,U2,9,~{RST}*%
%TO.N,unconnected-(U2-~{RST}-Pad9)*%
X37000000Y-86125000D03*
%TO.P,U2,8,VBUS*%
%TO.N,VBUS*%
X36500000Y-86125000D03*
%TO.P,U2,7,REGIN*%
%TO.N,+3.3V*%
X36000000Y-86125000D03*
D38*
%TO.P,U2,6,VDD*%
X35312500Y-85437500D03*
%TO.P,U2,5,VIO*%
X35312500Y-84937500D03*
%TO.P,U2,4,D-*%
%TO.N,Net-(J3-D-)*%
X35312500Y-84437500D03*
%TO.P,U2,3,D+*%
%TO.N,Net-(J3-D+)*%
X35312500Y-83937500D03*
%TO.P,U2,2,GND*%
%TO.N,GND*%
X35312500Y-83437500D03*
%TO.P,U2,1,~{RI}*%
%TO.N,unconnected-(U2-~{RI}-Pad1)*%
X35312500Y-82937500D03*
%TD*%
D15*
%TO.P,D9,1,VDD*%
%TO.N,+3.3V*%
X104350000Y-105200000D03*
%TO.P,D9,2,DOUT*%
%TO.N,Net-(D10-DIN)*%
X104350000Y-108500000D03*
%TO.P,D9,3,VSS*%
%TO.N,GND*%
X109250000Y-108500000D03*
%TO.P,D9,4,DIN*%
%TO.N,Net-(D8-DOUT)*%
X109250000Y-105200000D03*
%TD*%
D27*
%TO.P,R6,2*%
%TO.N,-BATT*%
X34500000Y-103250000D03*
%TO.P,R6,1*%
%TO.N,/GPIO35*%
X35520000Y-103250000D03*
%TD*%
D15*
%TO.P,D4,1,VDD*%
%TO.N,+3.3V*%
X27550000Y-73350000D03*
%TO.P,D4,2,DOUT*%
%TO.N,Net-(D4-DOUT)*%
X27550000Y-76650000D03*
%TO.P,D4,3,VSS*%
%TO.N,GND*%
X32450000Y-76650000D03*
%TO.P,D4,4,DIN*%
%TO.N,Net-(D4-DIN)*%
X32450000Y-73350000D03*
%TD*%
%TO.P,D7,1,VDD*%
%TO.N,+3.3V*%
X104250000Y-41500000D03*
%TO.P,D7,2,DOUT*%
%TO.N,Net-(D7-DOUT)*%
X104250000Y-44800000D03*
%TO.P,D7,3,VSS*%
%TO.N,GND*%
X109150000Y-44800000D03*
%TO.P,D7,4,DIN*%
%TO.N,Net-(D6-DOUT)*%
X109150000Y-41500000D03*
%TD*%
D27*
%TO.P,R10,2*%
%TO.N,Net-(D3-A)*%
X32250000Y-58500000D03*
%TO.P,R10,1*%
%TO.N,/GPIO13*%
X33270000Y-58500000D03*
%TD*%
D29*
%TO.P,C5,2*%
%TO.N,GND*%
X54525000Y-77000000D03*
%TO.P,C5,1*%
%TO.N,/RESET*%
X52975000Y-77000000D03*
%TD*%
%TO.P,C4,2*%
%TO.N,GND*%
X55275000Y-47500000D03*
%TO.P,C4,1*%
%TO.N,+3.3V*%
X53725000Y-47500000D03*
%TD*%
D15*
%TO.P,D8,1,VDD*%
%TO.N,+3.3V*%
X117500000Y-73250000D03*
%TO.P,D8,2,DOUT*%
%TO.N,Net-(D8-DOUT)*%
X117500000Y-76550000D03*
%TO.P,D8,3,VSS*%
%TO.N,GND*%
X122400000Y-76550000D03*
%TO.P,D8,4,DIN*%
%TO.N,Net-(D7-DOUT)*%
X122400000Y-73250000D03*
%TD*%
D39*
%TO.N,+3.3V*%
X34750000Y-87250000D03*
X37250000Y-87250000D03*
D40*
%TO.N,Net-(D1-K)*%
X38750000Y-92000000D03*
X37000000Y-93750000D03*
%TO.N,GND*%
X83000000Y-73000000D03*
X44000000Y-82750000D03*
X79750000Y-121500000D03*
X37000000Y-101750000D03*
D39*
X57000000Y-47500000D03*
X59250000Y-70250000D03*
D40*
X32000000Y-84000000D03*
X34750000Y-97500000D03*
X79750000Y-32000000D03*
D39*
X48000000Y-44750000D03*
D40*
X109250000Y-110750000D03*
D39*
X34750000Y-53500000D03*
D40*
X122500000Y-79000000D03*
X53750000Y-94750000D03*
X45750000Y-110750000D03*
X109250000Y-47000000D03*
D39*
X33250000Y-86500000D03*
D40*
X32500000Y-79250000D03*
X42500000Y-92500000D03*
X81280000Y-67250000D03*
X34750000Y-98750000D03*
X75000000Y-74500000D03*
D39*
X56250000Y-77000000D03*
%TO.N,+3.3V*%
X87250000Y-68500000D03*
X86000000Y-69750000D03*
D40*
X35750000Y-80250000D03*
X41000000Y-80250000D03*
%TO.N,/RESET*%
X61500000Y-96250000D03*
X63500000Y-94250000D03*
D39*
X60750000Y-84250000D03*
X60250000Y-73782393D03*
X62750000Y-71250000D03*
X58750000Y-83000000D03*
%TO.N,/GPIO35*%
X57500000Y-43500000D03*
X53750000Y-43500000D03*
D40*
X75000000Y-106500000D03*
X75000000Y-103750000D03*
D39*
%TO.N,/GPIO0*%
X50250000Y-71500000D03*
X46750000Y-70750000D03*
%TO.N,/GPIO5*%
X43500000Y-70000500D03*
X42500000Y-71750000D03*
%TO.N,/DTR*%
X47779977Y-72779977D03*
X44500000Y-72750000D03*
%TD*%
D41*
%TO.N,GND*%
X39950000Y-99700000D02*
X41500000Y-99700000D01*
X34750000Y-97500000D02*
X36450000Y-99200000D01*
X36450000Y-99200000D02*
X39450000Y-99200000D01*
X39450000Y-99200000D02*
X39950000Y-99700000D01*
D42*
%TO.N,+3.3V*%
X42000000Y-87250000D02*
X42250000Y-87500000D01*
X37250000Y-87250000D02*
X42000000Y-87250000D01*
X35312500Y-86687500D02*
X34750000Y-87250000D01*
X35312500Y-85437500D02*
X35312500Y-86687500D01*
%TO.N,Net-(D1-K)*%
X44750000Y-91500000D02*
X43750000Y-90500000D01*
D41*
X38750000Y-92000000D02*
X38750000Y-89300000D01*
D42*
X41500000Y-89000000D02*
X41250000Y-89250000D01*
X45750000Y-91500000D02*
X44750000Y-91500000D01*
X43750000Y-90500000D02*
X43750000Y-89000000D01*
D41*
X38700000Y-89250000D02*
X41250000Y-89250000D01*
D42*
X43750000Y-89000000D02*
X41500000Y-89000000D01*
D41*
X34350000Y-95000000D02*
X35750000Y-95000000D01*
X33250000Y-93900000D02*
X34350000Y-95000000D01*
X38750000Y-89300000D02*
X38700000Y-89250000D01*
X35750000Y-95000000D02*
X37000000Y-93750000D01*
%TO.N,VBUS*%
X40437500Y-93750000D02*
X39000000Y-93750000D01*
X48500000Y-101250000D02*
X48500000Y-98000000D01*
D42*
X29910000Y-87300000D02*
X30900000Y-87300000D01*
X31500000Y-87900000D02*
X31500000Y-88500000D01*
X30900000Y-87300000D02*
X31500000Y-87900000D01*
D41*
X47000000Y-96500000D02*
X43187500Y-96500000D01*
X36181250Y-90931250D02*
X39000000Y-93750000D01*
X48500000Y-98000000D02*
X47000000Y-96500000D01*
X45125000Y-102000000D02*
X47750000Y-102000000D01*
X43775000Y-100650000D02*
X45125000Y-102000000D01*
D42*
X35900000Y-87222596D02*
X35900000Y-89250000D01*
D41*
X47750000Y-102000000D02*
X48500000Y-101250000D01*
X43187500Y-96500000D02*
X40437500Y-93750000D01*
D42*
X36500000Y-86622596D02*
X35900000Y-87222596D01*
X36500000Y-86125000D02*
X36500000Y-86622596D01*
D41*
%TO.N,-BATT*%
X35750000Y-100250000D02*
X31750000Y-100250000D01*
X40000000Y-101000000D02*
X38350000Y-101000000D01*
D42*
X29250000Y-100250000D02*
X31750000Y-100250000D01*
D41*
X40350000Y-100650000D02*
X40000000Y-101000000D01*
X37500000Y-100150000D02*
X35850000Y-100150000D01*
X38350000Y-101000000D02*
X37500000Y-100150000D01*
D42*
X32063738Y-93000000D02*
X29250000Y-95813738D01*
D41*
X35850000Y-100150000D02*
X35750000Y-100250000D01*
D42*
X29250000Y-95813738D02*
X29250000Y-100250000D01*
D41*
X41500000Y-100650000D02*
X40350000Y-100650000D01*
D42*
X34437500Y-93000000D02*
X32063738Y-93000000D01*
%TO.N,GND*%
X41570000Y-99770000D02*
X41500000Y-99700000D01*
D41*
X41250000Y-90800000D02*
X41250000Y-91250000D01*
D42*
X32750000Y-87000000D02*
X33250000Y-86500000D01*
X31300000Y-84700000D02*
X29910000Y-84700000D01*
X36500000Y-83437500D02*
X37250000Y-84187500D01*
D41*
X81025000Y-73000000D02*
X83000000Y-73000000D01*
D42*
X56865000Y-67865000D02*
X59250000Y-70250000D01*
X55260000Y-47515000D02*
X55275000Y-47500000D01*
X46250000Y-99770000D02*
X41570000Y-99770000D01*
X32750000Y-87480000D02*
X32750000Y-87000000D01*
X32562500Y-83437500D02*
X35312500Y-83437500D01*
D43*
X78740000Y-68750000D02*
X81255000Y-68750000D01*
D42*
X45650000Y-44750000D02*
X48000000Y-44750000D01*
X37500000Y-53400000D02*
X34850000Y-53400000D01*
X75022000Y-74522000D02*
X75000000Y-74500000D01*
D41*
X52250000Y-94750000D02*
X53750000Y-94750000D01*
X77400000Y-31800000D02*
X79550000Y-31800000D01*
X109250000Y-108500000D02*
X109250000Y-110750000D01*
X37920000Y-101750000D02*
X38250000Y-102080000D01*
D43*
X81255000Y-68750000D02*
X81280000Y-68725000D01*
D41*
X41250000Y-91250000D02*
X42500000Y-92500000D01*
X36290000Y-101750000D02*
X35750000Y-101210000D01*
X109150000Y-46900000D02*
X109250000Y-47000000D01*
X51000000Y-93500000D02*
X52250000Y-94750000D01*
D42*
X55275000Y-47500000D02*
X57000000Y-47500000D01*
D41*
X53750000Y-92460000D02*
X53750000Y-94750000D01*
X55250000Y-94750000D02*
X53750000Y-94750000D01*
D43*
X81280000Y-68725000D02*
X81280000Y-67250000D01*
D42*
X75022000Y-76544000D02*
X75022000Y-74522000D01*
D41*
X32450000Y-76650000D02*
X32450000Y-79200000D01*
X37000000Y-101750000D02*
X36290000Y-101750000D01*
X109150000Y-44800000D02*
X109150000Y-46900000D01*
D42*
X42250000Y-82725000D02*
X43975000Y-82725000D01*
X32000000Y-84000000D02*
X32562500Y-83437500D01*
D41*
X77450000Y-121650000D02*
X79600000Y-121650000D01*
X122400000Y-78900000D02*
X122500000Y-79000000D01*
D42*
X33250000Y-55000000D02*
X34750000Y-53500000D01*
D41*
X57400000Y-96900000D02*
X57400000Y-98500000D01*
X51000000Y-93050000D02*
X51000000Y-93500000D01*
D42*
X31300000Y-84700000D02*
X32000000Y-84000000D01*
D41*
X122400000Y-76550000D02*
X122400000Y-78900000D01*
D42*
X74847000Y-74347000D02*
X75000000Y-74500000D01*
D41*
X42550000Y-92450000D02*
X42500000Y-92500000D01*
X79600000Y-121650000D02*
X79750000Y-121500000D01*
D42*
X34850000Y-53400000D02*
X34750000Y-53500000D01*
X55260000Y-67865000D02*
X56865000Y-67865000D01*
X32750000Y-55000000D02*
X33250000Y-55000000D01*
X55260000Y-50365000D02*
X55260000Y-47515000D01*
D41*
X79550000Y-31800000D02*
X79750000Y-32000000D01*
D42*
X43975000Y-82725000D02*
X44000000Y-82750000D01*
D41*
X45750000Y-108500000D02*
X45750000Y-110750000D01*
D42*
X35312500Y-83437500D02*
X36500000Y-83437500D01*
D41*
X32450000Y-79200000D02*
X32500000Y-79250000D01*
D42*
X74847000Y-73000000D02*
X74847000Y-74347000D01*
X54525000Y-77000000D02*
X56250000Y-77000000D01*
D41*
X45750000Y-92450000D02*
X42550000Y-92450000D01*
X37000000Y-101750000D02*
X37920000Y-101750000D01*
X55250000Y-94750000D02*
X57400000Y-96900000D01*
D42*
%TO.N,Net-(U1-EN)*%
X45750000Y-93400000D02*
X46412499Y-93400000D01*
X46412499Y-93400000D02*
X47000000Y-92812499D01*
X46250000Y-89000000D02*
X44770000Y-89000000D01*
X47000000Y-89750000D02*
X46250000Y-89000000D01*
X47000000Y-92812499D02*
X47000000Y-89750000D01*
D41*
%TO.N,+3.3V*%
X27550000Y-73350000D02*
X27550000Y-54650000D01*
X69250000Y-32750000D02*
X69250000Y-30000000D01*
X72550000Y-113250000D02*
X72550000Y-118350000D01*
D42*
X53250000Y-103250000D02*
X63250000Y-113250000D01*
D41*
X117500000Y-67500000D02*
X102750000Y-52750000D01*
X72550000Y-105050000D02*
X72550000Y-113250000D01*
D42*
X63250000Y-113250000D02*
X72550000Y-113250000D01*
D41*
X59619500Y-79880500D02*
X59619500Y-86000000D01*
X26000000Y-74000000D02*
X26000000Y-79250000D01*
X42250000Y-84275000D02*
X42250000Y-87500000D01*
X48025000Y-91500000D02*
X51000000Y-91500000D01*
X87250000Y-68500000D02*
X102750000Y-53000000D01*
X26250000Y-79500000D02*
X31000000Y-79500000D01*
D42*
X62520000Y-98500000D02*
X66000000Y-98500000D01*
X76022000Y-70500000D02*
X73250000Y-73272000D01*
X79250000Y-74750000D02*
X79250000Y-71250000D01*
D41*
X72500000Y-36000000D02*
X69250000Y-32750000D01*
X56500000Y-89000000D02*
X66000000Y-98500000D01*
D42*
X35312500Y-85437500D02*
X36000000Y-86125000D01*
D43*
X78765000Y-70275000D02*
X78740000Y-70300000D01*
D41*
X98000000Y-47750000D02*
X104250000Y-41500000D01*
X42250000Y-87500000D02*
X51250000Y-87500000D01*
D43*
X102750000Y-53000000D02*
X102750000Y-52750000D01*
D42*
X26000000Y-79250000D02*
X26250000Y-79500000D01*
X70468000Y-73272000D02*
X70000000Y-73740000D01*
D41*
X102750000Y-52750000D02*
X97750000Y-47750000D01*
D42*
X40850000Y-105200000D02*
X42800000Y-103250000D01*
X73250000Y-73272000D02*
X70468000Y-73272000D01*
X97750000Y-47750000D02*
X98000000Y-47750000D01*
D41*
X55500000Y-41750000D02*
X55500000Y-44250000D01*
X66000000Y-98500000D02*
X72550000Y-105050000D01*
X46000000Y-80250000D02*
X51250000Y-85500000D01*
X27550000Y-54650000D02*
X40750000Y-41450000D01*
D42*
X78500000Y-70500000D02*
X76022000Y-70500000D01*
D41*
X31750000Y-80250000D02*
X35750000Y-80250000D01*
X104350000Y-86400000D02*
X104350000Y-105200000D01*
X72500000Y-36000000D02*
X63797918Y-36000000D01*
X59619500Y-86000000D02*
X55750000Y-86000000D01*
D42*
X53990000Y-47765000D02*
X53725000Y-47500000D01*
X53990000Y-50365000D02*
X53990000Y-47765000D01*
D41*
X78000000Y-41500000D02*
X72500000Y-36000000D01*
D42*
X79250000Y-71250000D02*
X78500000Y-70500000D01*
D41*
X67250000Y-73740000D02*
X65760000Y-73740000D01*
X56000000Y-89000000D02*
X56500000Y-89000000D01*
X58047918Y-41750000D02*
X55500000Y-41750000D01*
X63797918Y-36000000D02*
X58047918Y-41750000D01*
X104250000Y-41500000D02*
X78000000Y-41500000D01*
D42*
X72700000Y-105200000D02*
X72550000Y-105050000D01*
D41*
X27550000Y-73350000D02*
X26650000Y-73350000D01*
D42*
X76794000Y-76272000D02*
X77728000Y-76272000D01*
D41*
X85475000Y-70275000D02*
X86000000Y-69750000D01*
X81280000Y-70275000D02*
X85475000Y-70275000D01*
X65760000Y-73740000D02*
X59619500Y-79880500D01*
X31000000Y-79500000D02*
X31750000Y-80250000D01*
X70750000Y-28500000D02*
X72500000Y-28500000D01*
X41000000Y-80250000D02*
X46000000Y-80250000D01*
X117500000Y-73250000D02*
X117500000Y-67500000D01*
X26650000Y-73350000D02*
X26000000Y-74000000D01*
D42*
X35312500Y-84937500D02*
X35312500Y-85437500D01*
D41*
X117500000Y-73250000D02*
X104350000Y-86400000D01*
X69250000Y-30000000D02*
X70750000Y-28500000D01*
D42*
X77728000Y-76272000D02*
X79250000Y-74750000D01*
D43*
X81280000Y-70275000D02*
X78765000Y-70275000D01*
D41*
X104350000Y-105200000D02*
X72700000Y-105200000D01*
X55500000Y-44250000D02*
X53725000Y-46025000D01*
D42*
X42800000Y-103250000D02*
X53250000Y-103250000D01*
D41*
X53725000Y-46025000D02*
X53725000Y-47500000D01*
X53750000Y-91500000D02*
X51000000Y-91500000D01*
D42*
%TO.N,/RESET*%
X60217607Y-73782393D02*
X60250000Y-73782393D01*
X61500000Y-98500000D02*
X61500000Y-96250000D01*
X52975000Y-77000000D02*
X54725000Y-75250000D01*
X52720000Y-52720000D02*
X52720000Y-50365000D01*
X54725000Y-75250000D02*
X58750000Y-75250000D01*
X52975000Y-77000000D02*
X58750000Y-82775000D01*
X58750000Y-75250000D02*
X60217607Y-73782393D01*
X60750000Y-84250000D02*
X66500000Y-90000000D01*
X66250000Y-67750000D02*
X66250000Y-56750000D01*
X66250000Y-56750000D02*
X63750000Y-54250000D01*
X66500000Y-91250000D02*
X63500000Y-94250000D01*
X58750000Y-82775000D02*
X58750000Y-83000000D01*
X52700000Y-76725000D02*
X52975000Y-77000000D01*
X62750000Y-71250000D02*
X66250000Y-67750000D01*
X52700000Y-74310000D02*
X52700000Y-76725000D01*
X66500000Y-90000000D02*
X66500000Y-91250000D01*
X61500000Y-98500000D02*
X59000000Y-98500000D01*
X54250000Y-54250000D02*
X52720000Y-52720000D01*
X63750000Y-54250000D02*
X54250000Y-54250000D01*
D41*
%TO.N,/GPIO35*%
X53750000Y-43500000D02*
X53255000Y-43500000D01*
X57500000Y-43500000D02*
X61000000Y-43500000D01*
X47640000Y-49115000D02*
X47640000Y-50365000D01*
X38100000Y-103250000D02*
X38250000Y-103100000D01*
X88250000Y-70750000D02*
X88250000Y-75250000D01*
X38250000Y-111250000D02*
X50500000Y-123500000D01*
X38250000Y-103100000D02*
X38250000Y-111250000D01*
X53255000Y-43500000D02*
X47640000Y-49115000D01*
X75000000Y-88500000D02*
X75000000Y-103750000D01*
X50500000Y-123500000D02*
X75000000Y-123500000D01*
X75000000Y-123500000D02*
X75000000Y-106500000D01*
X88250000Y-75250000D02*
X75000000Y-88500000D01*
X35510000Y-103250000D02*
X38100000Y-103250000D01*
X61000000Y-43500000D02*
X88250000Y-70750000D01*
D42*
%TO.N,/GPIO13*%
X33270000Y-58180001D02*
X36780001Y-54670000D01*
X36780001Y-54670000D02*
X37500000Y-54670000D01*
X33270000Y-58500000D02*
X33270000Y-58180001D01*
%TO.N,/GPIO0*%
X52700000Y-73010000D02*
X51190000Y-71500000D01*
X46750000Y-70750000D02*
X40585000Y-70750000D01*
X38750000Y-68915000D02*
X38750000Y-67865000D01*
X40585000Y-70750000D02*
X38750000Y-68915000D01*
X51190000Y-71500000D02*
X50250000Y-71500000D01*
%TO.N,/GPIO5*%
X43500000Y-70000500D02*
X43500000Y-68195000D01*
X40950000Y-73300000D02*
X42500000Y-71750000D01*
X36410000Y-73300000D02*
X40950000Y-73300000D01*
X43500000Y-68195000D02*
X43830000Y-67865000D01*
%TO.N,/RXD0*%
X37500000Y-82250000D02*
X37500000Y-81250000D01*
X50180000Y-68570000D02*
X50180000Y-67865000D01*
X37500000Y-81250000D02*
X50180000Y-68570000D01*
%TO.N,/TXD0*%
X38000000Y-81499293D02*
X38000000Y-82250000D01*
X50499293Y-69000000D02*
X38000000Y-81499293D01*
X50750000Y-69000000D02*
X50499293Y-69000000D01*
X51450000Y-67865000D02*
X51450000Y-68300000D01*
X51450000Y-68300000D02*
X50750000Y-69000000D01*
%TO.N,/DTR*%
X47779977Y-72779977D02*
X48010000Y-73010000D01*
X36500000Y-82250000D02*
X36500000Y-80750000D01*
X36500000Y-80750000D02*
X44500000Y-72750000D01*
X50000000Y-70500000D02*
X47779977Y-72720023D01*
X48010000Y-73010000D02*
X50800000Y-73010000D01*
X47779977Y-72720023D02*
X47779977Y-72779977D01*
X55750000Y-72740000D02*
X53510000Y-70500000D01*
X53510000Y-70500000D02*
X50000000Y-70500000D01*
%TO.N,Net-(Q2A-B1)*%
X48750000Y-73740000D02*
X50720000Y-73740000D01*
X50720000Y-73740000D02*
X50800000Y-73660000D01*
%TO.N,/RTS*%
X48750000Y-74760000D02*
X46347106Y-74760000D01*
X49200000Y-74310000D02*
X48750000Y-74760000D01*
X38500000Y-82250000D02*
X38500000Y-81750000D01*
X46347106Y-74760000D02*
X45897106Y-74310000D01*
X38500000Y-81750000D02*
X40000000Y-80250000D01*
X40000000Y-80207106D02*
X45853553Y-74353553D01*
X50800000Y-74310000D02*
X49200000Y-74310000D01*
D43*
X45897106Y-74310000D02*
X45853553Y-74353553D01*
D42*
X40000000Y-80250000D02*
X40000000Y-80207106D01*
%TO.N,Net-(Q2B-B2)*%
X52800000Y-73760000D02*
X52700000Y-73660000D01*
X55750000Y-73760000D02*
X52800000Y-73760000D01*
%TO.N,Net-(D4-DOUT)*%
X45650000Y-42200000D02*
X45650000Y-41450000D01*
X30250000Y-73950000D02*
X30250000Y-54516056D01*
X40350000Y-47500000D02*
X45650000Y-42200000D01*
X37266056Y-47500000D02*
X40350000Y-47500000D01*
X30250000Y-54516056D02*
X37266056Y-47500000D01*
X27550000Y-76650000D02*
X30250000Y-73950000D01*
%TO.N,Net-(D4-DIN)*%
X35390000Y-73300000D02*
X32500000Y-73300000D01*
X32500000Y-73300000D02*
X32450000Y-73350000D01*
%TO.N,Net-(D5-DOUT)*%
X77400000Y-28500000D02*
X77400000Y-27400000D01*
X76500000Y-26500000D02*
X56000000Y-26500000D01*
X77400000Y-27400000D02*
X76500000Y-26500000D01*
X56000000Y-26500000D02*
X43250000Y-39250000D01*
X43250000Y-39250000D02*
X43250000Y-42250000D01*
X43250000Y-42250000D02*
X40750000Y-44750000D01*
%TO.N,Net-(D6-DOUT)*%
X74050000Y-30250000D02*
X97900000Y-30250000D01*
X97900000Y-30250000D02*
X109150000Y-41500000D01*
X72500000Y-31800000D02*
X74050000Y-30250000D01*
%TO.N,Net-(D7-DOUT)*%
X122400000Y-66900000D02*
X122400000Y-73250000D01*
X104250000Y-44800000D02*
X104250000Y-48750000D01*
X104250000Y-48750000D02*
X122400000Y-66900000D01*
%TO.N,Net-(D8-DOUT)*%
X117500000Y-96950000D02*
X109250000Y-105200000D01*
X117500000Y-76550000D02*
X117500000Y-96950000D01*
%TO.N,Net-(D10-DIN)*%
X94500000Y-118350000D02*
X104350000Y-108500000D01*
X77450000Y-118350000D02*
X94500000Y-118350000D01*
%TO.N,Net-(D10-DOUT)*%
X45750000Y-105200000D02*
X43000000Y-107950000D01*
X43000000Y-107950000D02*
X43000000Y-111500000D01*
X43000000Y-111500000D02*
X53150000Y-121650000D01*
X53150000Y-121650000D02*
X72550000Y-121650000D01*
%TO.N,/SCL*%
X67772000Y-76272000D02*
X67250000Y-75750000D01*
X57782893Y-73032893D02*
X54750000Y-70000000D01*
X53805000Y-70000000D02*
X52720000Y-68915000D01*
X68500000Y-73032893D02*
X68500000Y-74250000D01*
X73250000Y-76272000D02*
X67772000Y-76272000D01*
X52720000Y-68915000D02*
X52720000Y-67865000D01*
X68500000Y-73032893D02*
X57782893Y-73032893D01*
X67250000Y-75750000D02*
X67250000Y-74760000D01*
X54750000Y-70000000D02*
X53805000Y-70000000D01*
X68500000Y-74250000D02*
X67990000Y-74760000D01*
X67990000Y-74760000D02*
X67250000Y-74760000D01*
%TO.N,/SDA*%
X71522000Y-75522000D02*
X70760000Y-74760000D01*
X68174214Y-72000000D02*
X69000000Y-72825786D01*
X70760000Y-74760000D02*
X70000000Y-74760000D01*
X73250000Y-75522000D02*
X71522000Y-75522000D01*
X53990000Y-68915000D02*
X54575000Y-69500000D01*
X54575000Y-69500000D02*
X55750000Y-69500000D01*
X69510000Y-74760000D02*
X70000000Y-74760000D01*
X55750000Y-69500000D02*
X58250000Y-72000000D01*
X69000000Y-72825786D02*
X69000000Y-74250000D01*
X53990000Y-67865000D02*
X53990000Y-68915000D01*
X58250000Y-72000000D02*
X68174214Y-72000000D01*
X69000000Y-74250000D02*
X69510000Y-74760000D01*
D41*
%TO.N,Net-(D2-A)*%
X41052500Y-96240000D02*
X41312500Y-96500000D01*
X38500000Y-96240000D02*
X41052500Y-96240000D01*
%TO.N,Net-(U3-STAT)*%
X39010000Y-97260000D02*
X40500000Y-98750000D01*
X38500000Y-97260000D02*
X39010000Y-97260000D01*
X40500000Y-98750000D02*
X41500000Y-98750000D01*
D42*
%TO.N,Net-(U3-PROG)*%
X46250000Y-98750000D02*
X43775000Y-98750000D01*
%TO.N,Net-(D3-A)*%
X32750000Y-56875000D02*
X32750000Y-58000000D01*
X32750000Y-58000000D02*
X32250000Y-58500000D01*
%TO.N,Net-(J3-D-)*%
X33964904Y-84437500D02*
X31752404Y-86650000D01*
X31752404Y-86650000D02*
X29910000Y-86650000D01*
X35312500Y-84437500D02*
X33964904Y-84437500D01*
%TO.N,Net-(J3-D+)*%
X31695298Y-86000000D02*
X33757798Y-83937500D01*
X31695298Y-86000000D02*
X29910000Y-86000000D01*
X33757798Y-83937500D02*
X35312500Y-83937500D01*
%TD*%
%TA.AperFunction,Conductor*%
%TO.N,GND*%
G36*
X34943039Y-97019685D02*
G01*
X34988794Y-97072489D01*
X35000000Y-97124000D01*
X35000000Y-98876000D01*
X34980315Y-98943039D01*
X34927511Y-98988794D01*
X34876000Y-99000000D01*
X30024500Y-99000000D01*
X29957461Y-98980315D01*
X29911706Y-98927511D01*
X29900500Y-98876000D01*
X29900500Y-97124000D01*
X29920185Y-97056961D01*
X29972989Y-97011206D01*
X30024500Y-97000000D01*
X34876000Y-97000000D01*
X34943039Y-97019685D01*
G37*
%TD.AperFunction*%
%TD*%
%TA.AperFunction,Conductor*%
%TO.N,VBUS*%
G36*
X36443039Y-88269685D02*
G01*
X36488794Y-88322489D01*
X36500000Y-88374000D01*
X36500000Y-92126000D01*
X36480315Y-92193039D01*
X36427511Y-92238794D01*
X36376000Y-92250000D01*
X31124000Y-92250000D01*
X31056961Y-92230315D01*
X31011206Y-92177511D01*
X31000000Y-92126000D01*
X31000000Y-88374000D01*
X31019685Y-88306961D01*
X31072489Y-88261206D01*
X31124000Y-88250000D01*
X36376000Y-88250000D01*
X36443039Y-88269685D01*
G37*
%TD.AperFunction*%
%TD*%
%TA.AperFunction,Conductor*%
%TO.N,+3.3V*%
G36*
X56693039Y-84769685D02*
G01*
X56738794Y-84822489D01*
X56750000Y-84874000D01*
X56750000Y-91376000D01*
X56730315Y-91443039D01*
X56677511Y-91488794D01*
X56626000Y-91500000D01*
X49874000Y-91500000D01*
X49806961Y-91480315D01*
X49761206Y-91427511D01*
X49750000Y-91376000D01*
X49750000Y-84874000D01*
X49769685Y-84806961D01*
X49822489Y-84761206D01*
X49874000Y-84750000D01*
X56626000Y-84750000D01*
X56693039Y-84769685D01*
G37*
%TD.AperFunction*%
%TD*%
%TA.AperFunction,Conductor*%
%TO.N,-BATT*%
G36*
X34693039Y-99769685D02*
G01*
X34738794Y-99822489D01*
X34750000Y-99874000D01*
X34750000Y-102992025D01*
X34749809Y-102996889D01*
X34749500Y-103000816D01*
X34749500Y-103000817D01*
X34749501Y-103499182D01*
X34749809Y-103503091D01*
X34750000Y-103507958D01*
X34750000Y-103626000D01*
X34730315Y-103693039D01*
X34677511Y-103738794D01*
X34626000Y-103750000D01*
X32250000Y-103750000D01*
X31500000Y-103750000D01*
X30124000Y-103750000D01*
X30056961Y-103730315D01*
X30011206Y-103677511D01*
X30000000Y-103626000D01*
X30000000Y-99874000D01*
X30019685Y-99806961D01*
X30072489Y-99761206D01*
X30124000Y-99750000D01*
X34626000Y-99750000D01*
X34693039Y-99769685D01*
G37*
%TD.AperFunction*%
%TD*%
M02*
