%TF.GenerationSoftware,KiCad,Pcbnew,7.0.9*%
%TF.CreationDate,2023-12-18T12:46:53-05:00*%
%TF.ProjectId,Coaster_KiCard,436f6173-7465-4725-9f4b-69436172642e,rev?*%
%TF.SameCoordinates,Original*%
%TF.FileFunction,Legend,Top*%
%TF.FilePolarity,Positive*%
%FSLAX46Y46*%
G04 Gerber Fmt 4.6, Leading zero omitted, Abs format (unit mm)*
G04 Created by KiCad (PCBNEW 7.0.9) date 2023-12-18 12:46:53*
%MOMM*%
%LPD*%
G01*
G04 APERTURE LIST*
%ADD10C,0.150000*%
%ADD11C,0.254000*%
%ADD12C,0.125000*%
%ADD13C,0.100000*%
%ADD14C,0.200000*%
%ADD15C,0.120000*%
G04 APERTURE END LIST*
D10*
X71824874Y-48949819D02*
X72491541Y-48949819D01*
X72777255Y-49997438D02*
X71824874Y-49997438D01*
X71824874Y-49997438D02*
X71824874Y-47997438D01*
X71824874Y-47997438D02*
X72777255Y-47997438D01*
X73443922Y-47997438D02*
X73920112Y-49997438D01*
X73920112Y-49997438D02*
X74301065Y-48568866D01*
X74301065Y-48568866D02*
X74682017Y-49997438D01*
X74682017Y-49997438D02*
X75158208Y-47997438D01*
X76586779Y-48949819D02*
X75920112Y-48949819D01*
X75920112Y-49997438D02*
X75920112Y-47997438D01*
X75920112Y-47997438D02*
X76872493Y-47997438D01*
X79158208Y-48949819D02*
X79824875Y-48949819D01*
X80110589Y-49997438D02*
X79158208Y-49997438D01*
X79158208Y-49997438D02*
X79158208Y-47997438D01*
X79158208Y-47997438D02*
X80110589Y-47997438D01*
X80967732Y-48664104D02*
X80967732Y-49997438D01*
X80967732Y-48854580D02*
X81062970Y-48759342D01*
X81062970Y-48759342D02*
X81253446Y-48664104D01*
X81253446Y-48664104D02*
X81539161Y-48664104D01*
X81539161Y-48664104D02*
X81729637Y-48759342D01*
X81729637Y-48759342D02*
X81824875Y-48949819D01*
X81824875Y-48949819D02*
X81824875Y-49997438D01*
X83634399Y-48664104D02*
X83634399Y-50283152D01*
X83634399Y-50283152D02*
X83539161Y-50473628D01*
X83539161Y-50473628D02*
X83443923Y-50568866D01*
X83443923Y-50568866D02*
X83253446Y-50664104D01*
X83253446Y-50664104D02*
X82967732Y-50664104D01*
X82967732Y-50664104D02*
X82777256Y-50568866D01*
X83634399Y-49902200D02*
X83443923Y-49997438D01*
X83443923Y-49997438D02*
X83062970Y-49997438D01*
X83062970Y-49997438D02*
X82872494Y-49902200D01*
X82872494Y-49902200D02*
X82777256Y-49806961D01*
X82777256Y-49806961D02*
X82682018Y-49616485D01*
X82682018Y-49616485D02*
X82682018Y-49045057D01*
X82682018Y-49045057D02*
X82777256Y-48854580D01*
X82777256Y-48854580D02*
X82872494Y-48759342D01*
X82872494Y-48759342D02*
X83062970Y-48664104D01*
X83062970Y-48664104D02*
X83443923Y-48664104D01*
X83443923Y-48664104D02*
X83634399Y-48759342D01*
X84586780Y-49997438D02*
X84586780Y-48664104D01*
X84586780Y-47997438D02*
X84491542Y-48092676D01*
X84491542Y-48092676D02*
X84586780Y-48187914D01*
X84586780Y-48187914D02*
X84682018Y-48092676D01*
X84682018Y-48092676D02*
X84586780Y-47997438D01*
X84586780Y-47997438D02*
X84586780Y-48187914D01*
X85539161Y-48664104D02*
X85539161Y-49997438D01*
X85539161Y-48854580D02*
X85634399Y-48759342D01*
X85634399Y-48759342D02*
X85824875Y-48664104D01*
X85824875Y-48664104D02*
X86110590Y-48664104D01*
X86110590Y-48664104D02*
X86301066Y-48759342D01*
X86301066Y-48759342D02*
X86396304Y-48949819D01*
X86396304Y-48949819D02*
X86396304Y-49997438D01*
X88110590Y-49902200D02*
X87920114Y-49997438D01*
X87920114Y-49997438D02*
X87539161Y-49997438D01*
X87539161Y-49997438D02*
X87348685Y-49902200D01*
X87348685Y-49902200D02*
X87253447Y-49711723D01*
X87253447Y-49711723D02*
X87253447Y-48949819D01*
X87253447Y-48949819D02*
X87348685Y-48759342D01*
X87348685Y-48759342D02*
X87539161Y-48664104D01*
X87539161Y-48664104D02*
X87920114Y-48664104D01*
X87920114Y-48664104D02*
X88110590Y-48759342D01*
X88110590Y-48759342D02*
X88205828Y-48949819D01*
X88205828Y-48949819D02*
X88205828Y-49140295D01*
X88205828Y-49140295D02*
X87253447Y-49330771D01*
X89824876Y-49902200D02*
X89634400Y-49997438D01*
X89634400Y-49997438D02*
X89253447Y-49997438D01*
X89253447Y-49997438D02*
X89062971Y-49902200D01*
X89062971Y-49902200D02*
X88967733Y-49711723D01*
X88967733Y-49711723D02*
X88967733Y-48949819D01*
X88967733Y-48949819D02*
X89062971Y-48759342D01*
X89062971Y-48759342D02*
X89253447Y-48664104D01*
X89253447Y-48664104D02*
X89634400Y-48664104D01*
X89634400Y-48664104D02*
X89824876Y-48759342D01*
X89824876Y-48759342D02*
X89920114Y-48949819D01*
X89920114Y-48949819D02*
X89920114Y-49140295D01*
X89920114Y-49140295D02*
X88967733Y-49330771D01*
X90777257Y-49997438D02*
X90777257Y-48664104D01*
X90777257Y-49045057D02*
X90872495Y-48854580D01*
X90872495Y-48854580D02*
X90967733Y-48759342D01*
X90967733Y-48759342D02*
X91158209Y-48664104D01*
X91158209Y-48664104D02*
X91348686Y-48664104D01*
X92015352Y-49997438D02*
X92015352Y-48664104D01*
X92015352Y-47997438D02*
X91920114Y-48092676D01*
X91920114Y-48092676D02*
X92015352Y-48187914D01*
X92015352Y-48187914D02*
X92110590Y-48092676D01*
X92110590Y-48092676D02*
X92015352Y-47997438D01*
X92015352Y-47997438D02*
X92015352Y-48187914D01*
X92967733Y-48664104D02*
X92967733Y-49997438D01*
X92967733Y-48854580D02*
X93062971Y-48759342D01*
X93062971Y-48759342D02*
X93253447Y-48664104D01*
X93253447Y-48664104D02*
X93539162Y-48664104D01*
X93539162Y-48664104D02*
X93729638Y-48759342D01*
X93729638Y-48759342D02*
X93824876Y-48949819D01*
X93824876Y-48949819D02*
X93824876Y-49997438D01*
X95634400Y-48664104D02*
X95634400Y-50283152D01*
X95634400Y-50283152D02*
X95539162Y-50473628D01*
X95539162Y-50473628D02*
X95443924Y-50568866D01*
X95443924Y-50568866D02*
X95253447Y-50664104D01*
X95253447Y-50664104D02*
X94967733Y-50664104D01*
X94967733Y-50664104D02*
X94777257Y-50568866D01*
X95634400Y-49902200D02*
X95443924Y-49997438D01*
X95443924Y-49997438D02*
X95062971Y-49997438D01*
X95062971Y-49997438D02*
X94872495Y-49902200D01*
X94872495Y-49902200D02*
X94777257Y-49806961D01*
X94777257Y-49806961D02*
X94682019Y-49616485D01*
X94682019Y-49616485D02*
X94682019Y-49045057D01*
X94682019Y-49045057D02*
X94777257Y-48854580D01*
X94777257Y-48854580D02*
X94872495Y-48759342D01*
X94872495Y-48759342D02*
X95062971Y-48664104D01*
X95062971Y-48664104D02*
X95443924Y-48664104D01*
X95443924Y-48664104D02*
X95634400Y-48759342D01*
X48312969Y-106619819D02*
X47836779Y-106619819D01*
X47836779Y-106619819D02*
X47836779Y-105619819D01*
X48646303Y-106096009D02*
X48979636Y-106096009D01*
X49122493Y-106619819D02*
X48646303Y-106619819D01*
X48646303Y-106619819D02*
X48646303Y-105619819D01*
X48646303Y-105619819D02*
X49122493Y-105619819D01*
X49551065Y-106619819D02*
X49551065Y-105619819D01*
X49551065Y-105619819D02*
X49789160Y-105619819D01*
X49789160Y-105619819D02*
X49932017Y-105667438D01*
X49932017Y-105667438D02*
X50027255Y-105762676D01*
X50027255Y-105762676D02*
X50074874Y-105857914D01*
X50074874Y-105857914D02*
X50122493Y-106048390D01*
X50122493Y-106048390D02*
X50122493Y-106191247D01*
X50122493Y-106191247D02*
X50074874Y-106381723D01*
X50074874Y-106381723D02*
X50027255Y-106476961D01*
X50027255Y-106476961D02*
X49932017Y-106572200D01*
X49932017Y-106572200D02*
X49789160Y-106619819D01*
X49789160Y-106619819D02*
X49551065Y-106619819D01*
X50693922Y-106048390D02*
X50598684Y-106000771D01*
X50598684Y-106000771D02*
X50551065Y-105953152D01*
X50551065Y-105953152D02*
X50503446Y-105857914D01*
X50503446Y-105857914D02*
X50503446Y-105810295D01*
X50503446Y-105810295D02*
X50551065Y-105715057D01*
X50551065Y-105715057D02*
X50598684Y-105667438D01*
X50598684Y-105667438D02*
X50693922Y-105619819D01*
X50693922Y-105619819D02*
X50884398Y-105619819D01*
X50884398Y-105619819D02*
X50979636Y-105667438D01*
X50979636Y-105667438D02*
X51027255Y-105715057D01*
X51027255Y-105715057D02*
X51074874Y-105810295D01*
X51074874Y-105810295D02*
X51074874Y-105857914D01*
X51074874Y-105857914D02*
X51027255Y-105953152D01*
X51027255Y-105953152D02*
X50979636Y-106000771D01*
X50979636Y-106000771D02*
X50884398Y-106048390D01*
X50884398Y-106048390D02*
X50693922Y-106048390D01*
X50693922Y-106048390D02*
X50598684Y-106096009D01*
X50598684Y-106096009D02*
X50551065Y-106143628D01*
X50551065Y-106143628D02*
X50503446Y-106238866D01*
X50503446Y-106238866D02*
X50503446Y-106429342D01*
X50503446Y-106429342D02*
X50551065Y-106524580D01*
X50551065Y-106524580D02*
X50598684Y-106572200D01*
X50598684Y-106572200D02*
X50693922Y-106619819D01*
X50693922Y-106619819D02*
X50884398Y-106619819D01*
X50884398Y-106619819D02*
X50979636Y-106572200D01*
X50979636Y-106572200D02*
X51027255Y-106524580D01*
X51027255Y-106524580D02*
X51074874Y-106429342D01*
X51074874Y-106429342D02*
X51074874Y-106238866D01*
X51074874Y-106238866D02*
X51027255Y-106143628D01*
X51027255Y-106143628D02*
X50979636Y-106096009D01*
X50979636Y-106096009D02*
X50884398Y-106048390D01*
X78812969Y-116119819D02*
X78336779Y-116119819D01*
X78336779Y-116119819D02*
X78336779Y-115119819D01*
X79146303Y-115596009D02*
X79479636Y-115596009D01*
X79622493Y-116119819D02*
X79146303Y-116119819D01*
X79146303Y-116119819D02*
X79146303Y-115119819D01*
X79146303Y-115119819D02*
X79622493Y-115119819D01*
X80051065Y-116119819D02*
X80051065Y-115119819D01*
X80051065Y-115119819D02*
X80289160Y-115119819D01*
X80289160Y-115119819D02*
X80432017Y-115167438D01*
X80432017Y-115167438D02*
X80527255Y-115262676D01*
X80527255Y-115262676D02*
X80574874Y-115357914D01*
X80574874Y-115357914D02*
X80622493Y-115548390D01*
X80622493Y-115548390D02*
X80622493Y-115691247D01*
X80622493Y-115691247D02*
X80574874Y-115881723D01*
X80574874Y-115881723D02*
X80527255Y-115976961D01*
X80527255Y-115976961D02*
X80432017Y-116072200D01*
X80432017Y-116072200D02*
X80289160Y-116119819D01*
X80289160Y-116119819D02*
X80051065Y-116119819D01*
X80955827Y-115119819D02*
X81622493Y-115119819D01*
X81622493Y-115119819D02*
X81193922Y-116119819D01*
X111562969Y-106369819D02*
X111086779Y-106369819D01*
X111086779Y-106369819D02*
X111086779Y-105369819D01*
X111896303Y-105846009D02*
X112229636Y-105846009D01*
X112372493Y-106369819D02*
X111896303Y-106369819D01*
X111896303Y-106369819D02*
X111896303Y-105369819D01*
X111896303Y-105369819D02*
X112372493Y-105369819D01*
X112801065Y-106369819D02*
X112801065Y-105369819D01*
X112801065Y-105369819D02*
X113039160Y-105369819D01*
X113039160Y-105369819D02*
X113182017Y-105417438D01*
X113182017Y-105417438D02*
X113277255Y-105512676D01*
X113277255Y-105512676D02*
X113324874Y-105607914D01*
X113324874Y-105607914D02*
X113372493Y-105798390D01*
X113372493Y-105798390D02*
X113372493Y-105941247D01*
X113372493Y-105941247D02*
X113324874Y-106131723D01*
X113324874Y-106131723D02*
X113277255Y-106226961D01*
X113277255Y-106226961D02*
X113182017Y-106322200D01*
X113182017Y-106322200D02*
X113039160Y-106369819D01*
X113039160Y-106369819D02*
X112801065Y-106369819D01*
X114229636Y-105369819D02*
X114039160Y-105369819D01*
X114039160Y-105369819D02*
X113943922Y-105417438D01*
X113943922Y-105417438D02*
X113896303Y-105465057D01*
X113896303Y-105465057D02*
X113801065Y-105607914D01*
X113801065Y-105607914D02*
X113753446Y-105798390D01*
X113753446Y-105798390D02*
X113753446Y-106179342D01*
X113753446Y-106179342D02*
X113801065Y-106274580D01*
X113801065Y-106274580D02*
X113848684Y-106322200D01*
X113848684Y-106322200D02*
X113943922Y-106369819D01*
X113943922Y-106369819D02*
X114134398Y-106369819D01*
X114134398Y-106369819D02*
X114229636Y-106322200D01*
X114229636Y-106322200D02*
X114277255Y-106274580D01*
X114277255Y-106274580D02*
X114324874Y-106179342D01*
X114324874Y-106179342D02*
X114324874Y-105941247D01*
X114324874Y-105941247D02*
X114277255Y-105846009D01*
X114277255Y-105846009D02*
X114229636Y-105798390D01*
X114229636Y-105798390D02*
X114134398Y-105750771D01*
X114134398Y-105750771D02*
X113943922Y-105750771D01*
X113943922Y-105750771D02*
X113848684Y-105798390D01*
X113848684Y-105798390D02*
X113801065Y-105846009D01*
X113801065Y-105846009D02*
X113753446Y-105941247D01*
X118812969Y-79369819D02*
X118336779Y-79369819D01*
X118336779Y-79369819D02*
X118336779Y-78369819D01*
X119146303Y-78846009D02*
X119479636Y-78846009D01*
X119622493Y-79369819D02*
X119146303Y-79369819D01*
X119146303Y-79369819D02*
X119146303Y-78369819D01*
X119146303Y-78369819D02*
X119622493Y-78369819D01*
X120051065Y-79369819D02*
X120051065Y-78369819D01*
X120051065Y-78369819D02*
X120289160Y-78369819D01*
X120289160Y-78369819D02*
X120432017Y-78417438D01*
X120432017Y-78417438D02*
X120527255Y-78512676D01*
X120527255Y-78512676D02*
X120574874Y-78607914D01*
X120574874Y-78607914D02*
X120622493Y-78798390D01*
X120622493Y-78798390D02*
X120622493Y-78941247D01*
X120622493Y-78941247D02*
X120574874Y-79131723D01*
X120574874Y-79131723D02*
X120527255Y-79226961D01*
X120527255Y-79226961D02*
X120432017Y-79322200D01*
X120432017Y-79322200D02*
X120289160Y-79369819D01*
X120289160Y-79369819D02*
X120051065Y-79369819D01*
X121527255Y-78369819D02*
X121051065Y-78369819D01*
X121051065Y-78369819D02*
X121003446Y-78846009D01*
X121003446Y-78846009D02*
X121051065Y-78798390D01*
X121051065Y-78798390D02*
X121146303Y-78750771D01*
X121146303Y-78750771D02*
X121384398Y-78750771D01*
X121384398Y-78750771D02*
X121479636Y-78798390D01*
X121479636Y-78798390D02*
X121527255Y-78846009D01*
X121527255Y-78846009D02*
X121574874Y-78941247D01*
X121574874Y-78941247D02*
X121574874Y-79179342D01*
X121574874Y-79179342D02*
X121527255Y-79274580D01*
X121527255Y-79274580D02*
X121479636Y-79322200D01*
X121479636Y-79322200D02*
X121384398Y-79369819D01*
X121384398Y-79369819D02*
X121146303Y-79369819D01*
X121146303Y-79369819D02*
X121051065Y-79322200D01*
X121051065Y-79322200D02*
X121003446Y-79274580D01*
X111562969Y-41119819D02*
X111086779Y-41119819D01*
X111086779Y-41119819D02*
X111086779Y-40119819D01*
X111896303Y-40596009D02*
X112229636Y-40596009D01*
X112372493Y-41119819D02*
X111896303Y-41119819D01*
X111896303Y-41119819D02*
X111896303Y-40119819D01*
X111896303Y-40119819D02*
X112372493Y-40119819D01*
X112801065Y-41119819D02*
X112801065Y-40119819D01*
X112801065Y-40119819D02*
X113039160Y-40119819D01*
X113039160Y-40119819D02*
X113182017Y-40167438D01*
X113182017Y-40167438D02*
X113277255Y-40262676D01*
X113277255Y-40262676D02*
X113324874Y-40357914D01*
X113324874Y-40357914D02*
X113372493Y-40548390D01*
X113372493Y-40548390D02*
X113372493Y-40691247D01*
X113372493Y-40691247D02*
X113324874Y-40881723D01*
X113324874Y-40881723D02*
X113277255Y-40976961D01*
X113277255Y-40976961D02*
X113182017Y-41072200D01*
X113182017Y-41072200D02*
X113039160Y-41119819D01*
X113039160Y-41119819D02*
X112801065Y-41119819D01*
X114229636Y-40453152D02*
X114229636Y-41119819D01*
X113991541Y-40072200D02*
X113753446Y-40786485D01*
X113753446Y-40786485D02*
X114372493Y-40786485D01*
X80312969Y-28119819D02*
X79836779Y-28119819D01*
X79836779Y-28119819D02*
X79836779Y-27119819D01*
X80646303Y-27596009D02*
X80979636Y-27596009D01*
X81122493Y-28119819D02*
X80646303Y-28119819D01*
X80646303Y-28119819D02*
X80646303Y-27119819D01*
X80646303Y-27119819D02*
X81122493Y-27119819D01*
X81551065Y-28119819D02*
X81551065Y-27119819D01*
X81551065Y-27119819D02*
X81789160Y-27119819D01*
X81789160Y-27119819D02*
X81932017Y-27167438D01*
X81932017Y-27167438D02*
X82027255Y-27262676D01*
X82027255Y-27262676D02*
X82074874Y-27357914D01*
X82074874Y-27357914D02*
X82122493Y-27548390D01*
X82122493Y-27548390D02*
X82122493Y-27691247D01*
X82122493Y-27691247D02*
X82074874Y-27881723D01*
X82074874Y-27881723D02*
X82027255Y-27976961D01*
X82027255Y-27976961D02*
X81932017Y-28072200D01*
X81932017Y-28072200D02*
X81789160Y-28119819D01*
X81789160Y-28119819D02*
X81551065Y-28119819D01*
X82455827Y-27119819D02*
X83074874Y-27119819D01*
X83074874Y-27119819D02*
X82741541Y-27500771D01*
X82741541Y-27500771D02*
X82884398Y-27500771D01*
X82884398Y-27500771D02*
X82979636Y-27548390D01*
X82979636Y-27548390D02*
X83027255Y-27596009D01*
X83027255Y-27596009D02*
X83074874Y-27691247D01*
X83074874Y-27691247D02*
X83074874Y-27929342D01*
X83074874Y-27929342D02*
X83027255Y-28024580D01*
X83027255Y-28024580D02*
X82979636Y-28072200D01*
X82979636Y-28072200D02*
X82884398Y-28119819D01*
X82884398Y-28119819D02*
X82598684Y-28119819D01*
X82598684Y-28119819D02*
X82503446Y-28072200D01*
X82503446Y-28072200D02*
X82455827Y-28024580D01*
X47312969Y-39119819D02*
X46836779Y-39119819D01*
X46836779Y-39119819D02*
X46836779Y-38119819D01*
X47646303Y-38596009D02*
X47979636Y-38596009D01*
X48122493Y-39119819D02*
X47646303Y-39119819D01*
X47646303Y-39119819D02*
X47646303Y-38119819D01*
X47646303Y-38119819D02*
X48122493Y-38119819D01*
X48551065Y-39119819D02*
X48551065Y-38119819D01*
X48551065Y-38119819D02*
X48789160Y-38119819D01*
X48789160Y-38119819D02*
X48932017Y-38167438D01*
X48932017Y-38167438D02*
X49027255Y-38262676D01*
X49027255Y-38262676D02*
X49074874Y-38357914D01*
X49074874Y-38357914D02*
X49122493Y-38548390D01*
X49122493Y-38548390D02*
X49122493Y-38691247D01*
X49122493Y-38691247D02*
X49074874Y-38881723D01*
X49074874Y-38881723D02*
X49027255Y-38976961D01*
X49027255Y-38976961D02*
X48932017Y-39072200D01*
X48932017Y-39072200D02*
X48789160Y-39119819D01*
X48789160Y-39119819D02*
X48551065Y-39119819D01*
X49503446Y-38215057D02*
X49551065Y-38167438D01*
X49551065Y-38167438D02*
X49646303Y-38119819D01*
X49646303Y-38119819D02*
X49884398Y-38119819D01*
X49884398Y-38119819D02*
X49979636Y-38167438D01*
X49979636Y-38167438D02*
X50027255Y-38215057D01*
X50027255Y-38215057D02*
X50074874Y-38310295D01*
X50074874Y-38310295D02*
X50074874Y-38405533D01*
X50074874Y-38405533D02*
X50027255Y-38548390D01*
X50027255Y-38548390D02*
X49455827Y-39119819D01*
X49455827Y-39119819D02*
X50074874Y-39119819D01*
X32562969Y-70619819D02*
X32086779Y-70619819D01*
X32086779Y-70619819D02*
X32086779Y-69619819D01*
X32896303Y-70096009D02*
X33229636Y-70096009D01*
X33372493Y-70619819D02*
X32896303Y-70619819D01*
X32896303Y-70619819D02*
X32896303Y-69619819D01*
X32896303Y-69619819D02*
X33372493Y-69619819D01*
X33801065Y-70619819D02*
X33801065Y-69619819D01*
X33801065Y-69619819D02*
X34039160Y-69619819D01*
X34039160Y-69619819D02*
X34182017Y-69667438D01*
X34182017Y-69667438D02*
X34277255Y-69762676D01*
X34277255Y-69762676D02*
X34324874Y-69857914D01*
X34324874Y-69857914D02*
X34372493Y-70048390D01*
X34372493Y-70048390D02*
X34372493Y-70191247D01*
X34372493Y-70191247D02*
X34324874Y-70381723D01*
X34324874Y-70381723D02*
X34277255Y-70476961D01*
X34277255Y-70476961D02*
X34182017Y-70572200D01*
X34182017Y-70572200D02*
X34039160Y-70619819D01*
X34039160Y-70619819D02*
X33801065Y-70619819D01*
X35324874Y-70619819D02*
X34753446Y-70619819D01*
X35039160Y-70619819D02*
X35039160Y-69619819D01*
X35039160Y-69619819D02*
X34943922Y-69762676D01*
X34943922Y-69762676D02*
X34848684Y-69857914D01*
X34848684Y-69857914D02*
X34753446Y-69905533D01*
X70836779Y-81369819D02*
X70836779Y-80369819D01*
X70836779Y-80369819D02*
X71217731Y-80369819D01*
X71217731Y-80369819D02*
X71312969Y-80417438D01*
X71312969Y-80417438D02*
X71360588Y-80465057D01*
X71360588Y-80465057D02*
X71408207Y-80560295D01*
X71408207Y-80560295D02*
X71408207Y-80703152D01*
X71408207Y-80703152D02*
X71360588Y-80798390D01*
X71360588Y-80798390D02*
X71312969Y-80846009D01*
X71312969Y-80846009D02*
X71217731Y-80893628D01*
X71217731Y-80893628D02*
X70836779Y-80893628D01*
X71836779Y-81369819D02*
X71836779Y-80703152D01*
X71836779Y-80893628D02*
X71884398Y-80798390D01*
X71884398Y-80798390D02*
X71932017Y-80750771D01*
X71932017Y-80750771D02*
X72027255Y-80703152D01*
X72027255Y-80703152D02*
X72122493Y-80703152D01*
X72598684Y-81369819D02*
X72503446Y-81322200D01*
X72503446Y-81322200D02*
X72455827Y-81274580D01*
X72455827Y-81274580D02*
X72408208Y-81179342D01*
X72408208Y-81179342D02*
X72408208Y-80893628D01*
X72408208Y-80893628D02*
X72455827Y-80798390D01*
X72455827Y-80798390D02*
X72503446Y-80750771D01*
X72503446Y-80750771D02*
X72598684Y-80703152D01*
X72598684Y-80703152D02*
X72741541Y-80703152D01*
X72741541Y-80703152D02*
X72836779Y-80750771D01*
X72836779Y-80750771D02*
X72884398Y-80798390D01*
X72884398Y-80798390D02*
X72932017Y-80893628D01*
X72932017Y-80893628D02*
X72932017Y-81179342D01*
X72932017Y-81179342D02*
X72884398Y-81274580D01*
X72884398Y-81274580D02*
X72836779Y-81322200D01*
X72836779Y-81322200D02*
X72741541Y-81369819D01*
X72741541Y-81369819D02*
X72598684Y-81369819D01*
X73265351Y-81369819D02*
X73789160Y-80703152D01*
X73265351Y-80703152D02*
X73789160Y-81369819D01*
X74884399Y-81322200D02*
X75027256Y-81369819D01*
X75027256Y-81369819D02*
X75265351Y-81369819D01*
X75265351Y-81369819D02*
X75360589Y-81322200D01*
X75360589Y-81322200D02*
X75408208Y-81274580D01*
X75408208Y-81274580D02*
X75455827Y-81179342D01*
X75455827Y-81179342D02*
X75455827Y-81084104D01*
X75455827Y-81084104D02*
X75408208Y-80988866D01*
X75408208Y-80988866D02*
X75360589Y-80941247D01*
X75360589Y-80941247D02*
X75265351Y-80893628D01*
X75265351Y-80893628D02*
X75074875Y-80846009D01*
X75074875Y-80846009D02*
X74979637Y-80798390D01*
X74979637Y-80798390D02*
X74932018Y-80750771D01*
X74932018Y-80750771D02*
X74884399Y-80655533D01*
X74884399Y-80655533D02*
X74884399Y-80560295D01*
X74884399Y-80560295D02*
X74932018Y-80465057D01*
X74932018Y-80465057D02*
X74979637Y-80417438D01*
X74979637Y-80417438D02*
X75074875Y-80369819D01*
X75074875Y-80369819D02*
X75312970Y-80369819D01*
X75312970Y-80369819D02*
X75455827Y-80417438D01*
X76265351Y-81322200D02*
X76170113Y-81369819D01*
X76170113Y-81369819D02*
X75979637Y-81369819D01*
X75979637Y-81369819D02*
X75884399Y-81322200D01*
X75884399Y-81322200D02*
X75836780Y-81226961D01*
X75836780Y-81226961D02*
X75836780Y-80846009D01*
X75836780Y-80846009D02*
X75884399Y-80750771D01*
X75884399Y-80750771D02*
X75979637Y-80703152D01*
X75979637Y-80703152D02*
X76170113Y-80703152D01*
X76170113Y-80703152D02*
X76265351Y-80750771D01*
X76265351Y-80750771D02*
X76312970Y-80846009D01*
X76312970Y-80846009D02*
X76312970Y-80941247D01*
X76312970Y-80941247D02*
X75836780Y-81036485D01*
X76741542Y-80703152D02*
X76741542Y-81369819D01*
X76741542Y-80798390D02*
X76789161Y-80750771D01*
X76789161Y-80750771D02*
X76884399Y-80703152D01*
X76884399Y-80703152D02*
X77027256Y-80703152D01*
X77027256Y-80703152D02*
X77122494Y-80750771D01*
X77122494Y-80750771D02*
X77170113Y-80846009D01*
X77170113Y-80846009D02*
X77170113Y-81369819D01*
X77598685Y-81322200D02*
X77693923Y-81369819D01*
X77693923Y-81369819D02*
X77884399Y-81369819D01*
X77884399Y-81369819D02*
X77979637Y-81322200D01*
X77979637Y-81322200D02*
X78027256Y-81226961D01*
X78027256Y-81226961D02*
X78027256Y-81179342D01*
X78027256Y-81179342D02*
X77979637Y-81084104D01*
X77979637Y-81084104D02*
X77884399Y-81036485D01*
X77884399Y-81036485D02*
X77741542Y-81036485D01*
X77741542Y-81036485D02*
X77646304Y-80988866D01*
X77646304Y-80988866D02*
X77598685Y-80893628D01*
X77598685Y-80893628D02*
X77598685Y-80846009D01*
X77598685Y-80846009D02*
X77646304Y-80750771D01*
X77646304Y-80750771D02*
X77741542Y-80703152D01*
X77741542Y-80703152D02*
X77884399Y-80703152D01*
X77884399Y-80703152D02*
X77979637Y-80750771D01*
X78598685Y-81369819D02*
X78503447Y-81322200D01*
X78503447Y-81322200D02*
X78455828Y-81274580D01*
X78455828Y-81274580D02*
X78408209Y-81179342D01*
X78408209Y-81179342D02*
X78408209Y-80893628D01*
X78408209Y-80893628D02*
X78455828Y-80798390D01*
X78455828Y-80798390D02*
X78503447Y-80750771D01*
X78503447Y-80750771D02*
X78598685Y-80703152D01*
X78598685Y-80703152D02*
X78741542Y-80703152D01*
X78741542Y-80703152D02*
X78836780Y-80750771D01*
X78836780Y-80750771D02*
X78884399Y-80798390D01*
X78884399Y-80798390D02*
X78932018Y-80893628D01*
X78932018Y-80893628D02*
X78932018Y-81179342D01*
X78932018Y-81179342D02*
X78884399Y-81274580D01*
X78884399Y-81274580D02*
X78836780Y-81322200D01*
X78836780Y-81322200D02*
X78741542Y-81369819D01*
X78741542Y-81369819D02*
X78598685Y-81369819D01*
X79360590Y-81369819D02*
X79360590Y-80703152D01*
X79360590Y-80893628D02*
X79408209Y-80798390D01*
X79408209Y-80798390D02*
X79455828Y-80750771D01*
X79455828Y-80750771D02*
X79551066Y-80703152D01*
X79551066Y-80703152D02*
X79646304Y-80703152D01*
X32836779Y-96488866D02*
X33598684Y-96488866D01*
X32886779Y-101663866D02*
X33648684Y-101663866D01*
X33267731Y-102044819D02*
X33267731Y-101282914D01*
D11*
X27154318Y-86423332D02*
X28061461Y-86423332D01*
X28061461Y-86423332D02*
X28242889Y-86483809D01*
X28242889Y-86483809D02*
X28363842Y-86604761D01*
X28363842Y-86604761D02*
X28424318Y-86786190D01*
X28424318Y-86786190D02*
X28424318Y-86907142D01*
X27154318Y-85939523D02*
X27154318Y-85153332D01*
X27154318Y-85153332D02*
X27638127Y-85576666D01*
X27638127Y-85576666D02*
X27638127Y-85395237D01*
X27638127Y-85395237D02*
X27698603Y-85274285D01*
X27698603Y-85274285D02*
X27759080Y-85213809D01*
X27759080Y-85213809D02*
X27880032Y-85153332D01*
X27880032Y-85153332D02*
X28182413Y-85153332D01*
X28182413Y-85153332D02*
X28303365Y-85213809D01*
X28303365Y-85213809D02*
X28363842Y-85274285D01*
X28363842Y-85274285D02*
X28424318Y-85395237D01*
X28424318Y-85395237D02*
X28424318Y-85758094D01*
X28424318Y-85758094D02*
X28363842Y-85879047D01*
X28363842Y-85879047D02*
X28303365Y-85939523D01*
X64260237Y-53324318D02*
X64260237Y-52054318D01*
X65590714Y-53203365D02*
X65530238Y-53263842D01*
X65530238Y-53263842D02*
X65348809Y-53324318D01*
X65348809Y-53324318D02*
X65227857Y-53324318D01*
X65227857Y-53324318D02*
X65046428Y-53263842D01*
X65046428Y-53263842D02*
X64925476Y-53142889D01*
X64925476Y-53142889D02*
X64864999Y-53021937D01*
X64864999Y-53021937D02*
X64804523Y-52780032D01*
X64804523Y-52780032D02*
X64804523Y-52598603D01*
X64804523Y-52598603D02*
X64864999Y-52356699D01*
X64864999Y-52356699D02*
X64925476Y-52235746D01*
X64925476Y-52235746D02*
X65046428Y-52114794D01*
X65046428Y-52114794D02*
X65227857Y-52054318D01*
X65227857Y-52054318D02*
X65348809Y-52054318D01*
X65348809Y-52054318D02*
X65530238Y-52114794D01*
X65530238Y-52114794D02*
X65590714Y-52175270D01*
X66800238Y-53324318D02*
X66074523Y-53324318D01*
X66437380Y-53324318D02*
X66437380Y-52054318D01*
X66437380Y-52054318D02*
X66316428Y-52235746D01*
X66316428Y-52235746D02*
X66195476Y-52356699D01*
X66195476Y-52356699D02*
X66074523Y-52417175D01*
D10*
X46588095Y-89554819D02*
X46588095Y-90364342D01*
X46588095Y-90364342D02*
X46635714Y-90459580D01*
X46635714Y-90459580D02*
X46683333Y-90507200D01*
X46683333Y-90507200D02*
X46778571Y-90554819D01*
X46778571Y-90554819D02*
X46969047Y-90554819D01*
X46969047Y-90554819D02*
X47064285Y-90507200D01*
X47064285Y-90507200D02*
X47111904Y-90459580D01*
X47111904Y-90459580D02*
X47159523Y-90364342D01*
X47159523Y-90364342D02*
X47159523Y-89554819D01*
X48159523Y-90554819D02*
X47588095Y-90554819D01*
X47873809Y-90554819D02*
X47873809Y-89554819D01*
X47873809Y-89554819D02*
X47778571Y-89697676D01*
X47778571Y-89697676D02*
X47683333Y-89792914D01*
X47683333Y-89792914D02*
X47588095Y-89840533D01*
X43511905Y-95204819D02*
X43511905Y-94204819D01*
X43511905Y-94204819D02*
X43750000Y-94204819D01*
X43750000Y-94204819D02*
X43892857Y-94252438D01*
X43892857Y-94252438D02*
X43988095Y-94347676D01*
X43988095Y-94347676D02*
X44035714Y-94442914D01*
X44035714Y-94442914D02*
X44083333Y-94633390D01*
X44083333Y-94633390D02*
X44083333Y-94776247D01*
X44083333Y-94776247D02*
X44035714Y-94966723D01*
X44035714Y-94966723D02*
X43988095Y-95061961D01*
X43988095Y-95061961D02*
X43892857Y-95157200D01*
X43892857Y-95157200D02*
X43750000Y-95204819D01*
X43750000Y-95204819D02*
X43511905Y-95204819D01*
X44464286Y-94300057D02*
X44511905Y-94252438D01*
X44511905Y-94252438D02*
X44607143Y-94204819D01*
X44607143Y-94204819D02*
X44845238Y-94204819D01*
X44845238Y-94204819D02*
X44940476Y-94252438D01*
X44940476Y-94252438D02*
X44988095Y-94300057D01*
X44988095Y-94300057D02*
X45035714Y-94395295D01*
X45035714Y-94395295D02*
X45035714Y-94490533D01*
X45035714Y-94490533D02*
X44988095Y-94633390D01*
X44988095Y-94633390D02*
X44416667Y-95204819D01*
X44416667Y-95204819D02*
X45035714Y-95204819D01*
X51654761Y-72210057D02*
X51559523Y-72162438D01*
X51559523Y-72162438D02*
X51464285Y-72067200D01*
X51464285Y-72067200D02*
X51321428Y-71924342D01*
X51321428Y-71924342D02*
X51226190Y-71876723D01*
X51226190Y-71876723D02*
X51130952Y-71876723D01*
X51178571Y-72114819D02*
X51083333Y-72067200D01*
X51083333Y-72067200D02*
X50988095Y-71971961D01*
X50988095Y-71971961D02*
X50940476Y-71781485D01*
X50940476Y-71781485D02*
X50940476Y-71448152D01*
X50940476Y-71448152D02*
X50988095Y-71257676D01*
X50988095Y-71257676D02*
X51083333Y-71162438D01*
X51083333Y-71162438D02*
X51178571Y-71114819D01*
X51178571Y-71114819D02*
X51369047Y-71114819D01*
X51369047Y-71114819D02*
X51464285Y-71162438D01*
X51464285Y-71162438D02*
X51559523Y-71257676D01*
X51559523Y-71257676D02*
X51607142Y-71448152D01*
X51607142Y-71448152D02*
X51607142Y-71781485D01*
X51607142Y-71781485D02*
X51559523Y-71971961D01*
X51559523Y-71971961D02*
X51464285Y-72067200D01*
X51464285Y-72067200D02*
X51369047Y-72114819D01*
X51369047Y-72114819D02*
X51178571Y-72114819D01*
X51988095Y-71210057D02*
X52035714Y-71162438D01*
X52035714Y-71162438D02*
X52130952Y-71114819D01*
X52130952Y-71114819D02*
X52369047Y-71114819D01*
X52369047Y-71114819D02*
X52464285Y-71162438D01*
X52464285Y-71162438D02*
X52511904Y-71210057D01*
X52511904Y-71210057D02*
X52559523Y-71305295D01*
X52559523Y-71305295D02*
X52559523Y-71400533D01*
X52559523Y-71400533D02*
X52511904Y-71543390D01*
X52511904Y-71543390D02*
X51940476Y-72114819D01*
X51940476Y-72114819D02*
X52559523Y-72114819D01*
X73785714Y-116954819D02*
X73785714Y-115954819D01*
X73785714Y-115954819D02*
X74023809Y-115954819D01*
X74023809Y-115954819D02*
X74166666Y-116002438D01*
X74166666Y-116002438D02*
X74261904Y-116097676D01*
X74261904Y-116097676D02*
X74309523Y-116192914D01*
X74309523Y-116192914D02*
X74357142Y-116383390D01*
X74357142Y-116383390D02*
X74357142Y-116526247D01*
X74357142Y-116526247D02*
X74309523Y-116716723D01*
X74309523Y-116716723D02*
X74261904Y-116811961D01*
X74261904Y-116811961D02*
X74166666Y-116907200D01*
X74166666Y-116907200D02*
X74023809Y-116954819D01*
X74023809Y-116954819D02*
X73785714Y-116954819D01*
X75309523Y-116954819D02*
X74738095Y-116954819D01*
X75023809Y-116954819D02*
X75023809Y-115954819D01*
X75023809Y-115954819D02*
X74928571Y-116097676D01*
X74928571Y-116097676D02*
X74833333Y-116192914D01*
X74833333Y-116192914D02*
X74738095Y-116240533D01*
X75928571Y-115954819D02*
X76023809Y-115954819D01*
X76023809Y-115954819D02*
X76119047Y-116002438D01*
X76119047Y-116002438D02*
X76166666Y-116050057D01*
X76166666Y-116050057D02*
X76214285Y-116145295D01*
X76214285Y-116145295D02*
X76261904Y-116335771D01*
X76261904Y-116335771D02*
X76261904Y-116573866D01*
X76261904Y-116573866D02*
X76214285Y-116764342D01*
X76214285Y-116764342D02*
X76166666Y-116859580D01*
X76166666Y-116859580D02*
X76119047Y-116907200D01*
X76119047Y-116907200D02*
X76023809Y-116954819D01*
X76023809Y-116954819D02*
X75928571Y-116954819D01*
X75928571Y-116954819D02*
X75833333Y-116907200D01*
X75833333Y-116907200D02*
X75785714Y-116859580D01*
X75785714Y-116859580D02*
X75738095Y-116764342D01*
X75738095Y-116764342D02*
X75690476Y-116573866D01*
X75690476Y-116573866D02*
X75690476Y-116335771D01*
X75690476Y-116335771D02*
X75738095Y-116145295D01*
X75738095Y-116145295D02*
X75785714Y-116050057D01*
X75785714Y-116050057D02*
X75833333Y-116002438D01*
X75833333Y-116002438D02*
X75928571Y-115954819D01*
X32133333Y-90004819D02*
X31800000Y-89528628D01*
X31561905Y-90004819D02*
X31561905Y-89004819D01*
X31561905Y-89004819D02*
X31942857Y-89004819D01*
X31942857Y-89004819D02*
X32038095Y-89052438D01*
X32038095Y-89052438D02*
X32085714Y-89100057D01*
X32085714Y-89100057D02*
X32133333Y-89195295D01*
X32133333Y-89195295D02*
X32133333Y-89338152D01*
X32133333Y-89338152D02*
X32085714Y-89433390D01*
X32085714Y-89433390D02*
X32038095Y-89481009D01*
X32038095Y-89481009D02*
X31942857Y-89528628D01*
X31942857Y-89528628D02*
X31561905Y-89528628D01*
X33085714Y-90004819D02*
X32514286Y-90004819D01*
X32800000Y-90004819D02*
X32800000Y-89004819D01*
X32800000Y-89004819D02*
X32704762Y-89147676D01*
X32704762Y-89147676D02*
X32609524Y-89242914D01*
X32609524Y-89242914D02*
X32514286Y-89290533D01*
D11*
X28010318Y-99261332D02*
X28917461Y-99261332D01*
X28917461Y-99261332D02*
X29098889Y-99321809D01*
X29098889Y-99321809D02*
X29219842Y-99442761D01*
X29219842Y-99442761D02*
X29280318Y-99624190D01*
X29280318Y-99624190D02*
X29280318Y-99745142D01*
X29280318Y-97991332D02*
X29280318Y-98717047D01*
X29280318Y-98354190D02*
X28010318Y-98354190D01*
X28010318Y-98354190D02*
X28191746Y-98475142D01*
X28191746Y-98475142D02*
X28312699Y-98596094D01*
X28312699Y-98596094D02*
X28373175Y-98717047D01*
X73760237Y-79824318D02*
X73760237Y-78554318D01*
X75090714Y-79703365D02*
X75030238Y-79763842D01*
X75030238Y-79763842D02*
X74848809Y-79824318D01*
X74848809Y-79824318D02*
X74727857Y-79824318D01*
X74727857Y-79824318D02*
X74546428Y-79763842D01*
X74546428Y-79763842D02*
X74425476Y-79642889D01*
X74425476Y-79642889D02*
X74364999Y-79521937D01*
X74364999Y-79521937D02*
X74304523Y-79280032D01*
X74304523Y-79280032D02*
X74304523Y-79098603D01*
X74304523Y-79098603D02*
X74364999Y-78856699D01*
X74364999Y-78856699D02*
X74425476Y-78735746D01*
X74425476Y-78735746D02*
X74546428Y-78614794D01*
X74546428Y-78614794D02*
X74727857Y-78554318D01*
X74727857Y-78554318D02*
X74848809Y-78554318D01*
X74848809Y-78554318D02*
X75030238Y-78614794D01*
X75030238Y-78614794D02*
X75090714Y-78675270D01*
X75574523Y-78675270D02*
X75634999Y-78614794D01*
X75634999Y-78614794D02*
X75755952Y-78554318D01*
X75755952Y-78554318D02*
X76058333Y-78554318D01*
X76058333Y-78554318D02*
X76179285Y-78614794D01*
X76179285Y-78614794D02*
X76239761Y-78675270D01*
X76239761Y-78675270D02*
X76300238Y-78796222D01*
X76300238Y-78796222D02*
X76300238Y-78917175D01*
X76300238Y-78917175D02*
X76239761Y-79098603D01*
X76239761Y-79098603D02*
X75514047Y-79824318D01*
X75514047Y-79824318D02*
X76300238Y-79824318D01*
D10*
X37954819Y-96916666D02*
X37478628Y-97249999D01*
X37954819Y-97488094D02*
X36954819Y-97488094D01*
X36954819Y-97488094D02*
X36954819Y-97107142D01*
X36954819Y-97107142D02*
X37002438Y-97011904D01*
X37002438Y-97011904D02*
X37050057Y-96964285D01*
X37050057Y-96964285D02*
X37145295Y-96916666D01*
X37145295Y-96916666D02*
X37288152Y-96916666D01*
X37288152Y-96916666D02*
X37383390Y-96964285D01*
X37383390Y-96964285D02*
X37431009Y-97011904D01*
X37431009Y-97011904D02*
X37478628Y-97107142D01*
X37478628Y-97107142D02*
X37478628Y-97488094D01*
X37383390Y-96345237D02*
X37335771Y-96440475D01*
X37335771Y-96440475D02*
X37288152Y-96488094D01*
X37288152Y-96488094D02*
X37192914Y-96535713D01*
X37192914Y-96535713D02*
X37145295Y-96535713D01*
X37145295Y-96535713D02*
X37050057Y-96488094D01*
X37050057Y-96488094D02*
X37002438Y-96440475D01*
X37002438Y-96440475D02*
X36954819Y-96345237D01*
X36954819Y-96345237D02*
X36954819Y-96154761D01*
X36954819Y-96154761D02*
X37002438Y-96059523D01*
X37002438Y-96059523D02*
X37050057Y-96011904D01*
X37050057Y-96011904D02*
X37145295Y-95964285D01*
X37145295Y-95964285D02*
X37192914Y-95964285D01*
X37192914Y-95964285D02*
X37288152Y-96011904D01*
X37288152Y-96011904D02*
X37335771Y-96059523D01*
X37335771Y-96059523D02*
X37383390Y-96154761D01*
X37383390Y-96154761D02*
X37383390Y-96345237D01*
X37383390Y-96345237D02*
X37431009Y-96440475D01*
X37431009Y-96440475D02*
X37478628Y-96488094D01*
X37478628Y-96488094D02*
X37573866Y-96535713D01*
X37573866Y-96535713D02*
X37764342Y-96535713D01*
X37764342Y-96535713D02*
X37859580Y-96488094D01*
X37859580Y-96488094D02*
X37907200Y-96440475D01*
X37907200Y-96440475D02*
X37954819Y-96345237D01*
X37954819Y-96345237D02*
X37954819Y-96154761D01*
X37954819Y-96154761D02*
X37907200Y-96059523D01*
X37907200Y-96059523D02*
X37859580Y-96011904D01*
X37859580Y-96011904D02*
X37764342Y-95964285D01*
X37764342Y-95964285D02*
X37573866Y-95964285D01*
X37573866Y-95964285D02*
X37478628Y-96011904D01*
X37478628Y-96011904D02*
X37431009Y-96059523D01*
X37431009Y-96059523D02*
X37383390Y-96154761D01*
D11*
X58713842Y-101517619D02*
X58774318Y-101336190D01*
X58774318Y-101336190D02*
X58774318Y-101033809D01*
X58774318Y-101033809D02*
X58713842Y-100912857D01*
X58713842Y-100912857D02*
X58653365Y-100852381D01*
X58653365Y-100852381D02*
X58532413Y-100791904D01*
X58532413Y-100791904D02*
X58411461Y-100791904D01*
X58411461Y-100791904D02*
X58290508Y-100852381D01*
X58290508Y-100852381D02*
X58230032Y-100912857D01*
X58230032Y-100912857D02*
X58169556Y-101033809D01*
X58169556Y-101033809D02*
X58109080Y-101275714D01*
X58109080Y-101275714D02*
X58048603Y-101396666D01*
X58048603Y-101396666D02*
X57988127Y-101457143D01*
X57988127Y-101457143D02*
X57867175Y-101517619D01*
X57867175Y-101517619D02*
X57746222Y-101517619D01*
X57746222Y-101517619D02*
X57625270Y-101457143D01*
X57625270Y-101457143D02*
X57564794Y-101396666D01*
X57564794Y-101396666D02*
X57504318Y-101275714D01*
X57504318Y-101275714D02*
X57504318Y-100973333D01*
X57504318Y-100973333D02*
X57564794Y-100791904D01*
X58774318Y-99582380D02*
X58774318Y-100308095D01*
X58774318Y-99945238D02*
X57504318Y-99945238D01*
X57504318Y-99945238D02*
X57685746Y-100066190D01*
X57685746Y-100066190D02*
X57806699Y-100187142D01*
X57806699Y-100187142D02*
X57867175Y-100308095D01*
D10*
X61843333Y-100124819D02*
X61510000Y-99648628D01*
X61271905Y-100124819D02*
X61271905Y-99124819D01*
X61271905Y-99124819D02*
X61652857Y-99124819D01*
X61652857Y-99124819D02*
X61748095Y-99172438D01*
X61748095Y-99172438D02*
X61795714Y-99220057D01*
X61795714Y-99220057D02*
X61843333Y-99315295D01*
X61843333Y-99315295D02*
X61843333Y-99458152D01*
X61843333Y-99458152D02*
X61795714Y-99553390D01*
X61795714Y-99553390D02*
X61748095Y-99601009D01*
X61748095Y-99601009D02*
X61652857Y-99648628D01*
X61652857Y-99648628D02*
X61271905Y-99648628D01*
X62176667Y-99124819D02*
X62795714Y-99124819D01*
X62795714Y-99124819D02*
X62462381Y-99505771D01*
X62462381Y-99505771D02*
X62605238Y-99505771D01*
X62605238Y-99505771D02*
X62700476Y-99553390D01*
X62700476Y-99553390D02*
X62748095Y-99601009D01*
X62748095Y-99601009D02*
X62795714Y-99696247D01*
X62795714Y-99696247D02*
X62795714Y-99934342D01*
X62795714Y-99934342D02*
X62748095Y-100029580D01*
X62748095Y-100029580D02*
X62700476Y-100077200D01*
X62700476Y-100077200D02*
X62605238Y-100124819D01*
X62605238Y-100124819D02*
X62319524Y-100124819D01*
X62319524Y-100124819D02*
X62224286Y-100077200D01*
X62224286Y-100077200D02*
X62176667Y-100029580D01*
X77607142Y-67609580D02*
X77559523Y-67657200D01*
X77559523Y-67657200D02*
X77416666Y-67704819D01*
X77416666Y-67704819D02*
X77321428Y-67704819D01*
X77321428Y-67704819D02*
X77178571Y-67657200D01*
X77178571Y-67657200D02*
X77083333Y-67561961D01*
X77083333Y-67561961D02*
X77035714Y-67466723D01*
X77035714Y-67466723D02*
X76988095Y-67276247D01*
X76988095Y-67276247D02*
X76988095Y-67133390D01*
X76988095Y-67133390D02*
X77035714Y-66942914D01*
X77035714Y-66942914D02*
X77083333Y-66847676D01*
X77083333Y-66847676D02*
X77178571Y-66752438D01*
X77178571Y-66752438D02*
X77321428Y-66704819D01*
X77321428Y-66704819D02*
X77416666Y-66704819D01*
X77416666Y-66704819D02*
X77559523Y-66752438D01*
X77559523Y-66752438D02*
X77607142Y-66800057D01*
X78559523Y-67704819D02*
X77988095Y-67704819D01*
X78273809Y-67704819D02*
X78273809Y-66704819D01*
X78273809Y-66704819D02*
X78178571Y-66847676D01*
X78178571Y-66847676D02*
X78083333Y-66942914D01*
X78083333Y-66942914D02*
X77988095Y-66990533D01*
X79178571Y-66704819D02*
X79273809Y-66704819D01*
X79273809Y-66704819D02*
X79369047Y-66752438D01*
X79369047Y-66752438D02*
X79416666Y-66800057D01*
X79416666Y-66800057D02*
X79464285Y-66895295D01*
X79464285Y-66895295D02*
X79511904Y-67085771D01*
X79511904Y-67085771D02*
X79511904Y-67323866D01*
X79511904Y-67323866D02*
X79464285Y-67514342D01*
X79464285Y-67514342D02*
X79416666Y-67609580D01*
X79416666Y-67609580D02*
X79369047Y-67657200D01*
X79369047Y-67657200D02*
X79273809Y-67704819D01*
X79273809Y-67704819D02*
X79178571Y-67704819D01*
X79178571Y-67704819D02*
X79083333Y-67657200D01*
X79083333Y-67657200D02*
X79035714Y-67609580D01*
X79035714Y-67609580D02*
X78988095Y-67514342D01*
X78988095Y-67514342D02*
X78940476Y-67323866D01*
X78940476Y-67323866D02*
X78940476Y-67085771D01*
X78940476Y-67085771D02*
X78988095Y-66895295D01*
X78988095Y-66895295D02*
X79035714Y-66800057D01*
X79035714Y-66800057D02*
X79083333Y-66752438D01*
X79083333Y-66752438D02*
X79178571Y-66704819D01*
X29238095Y-116254819D02*
X29238095Y-115254819D01*
X29238095Y-115731009D02*
X29809523Y-115731009D01*
X29809523Y-116254819D02*
X29809523Y-115254819D01*
X30714285Y-115588152D02*
X30714285Y-116254819D01*
X30476190Y-115207200D02*
X30238095Y-115921485D01*
X30238095Y-115921485D02*
X30857142Y-115921485D01*
X42085714Y-103804819D02*
X42085714Y-102804819D01*
X42085714Y-102804819D02*
X42323809Y-102804819D01*
X42323809Y-102804819D02*
X42466666Y-102852438D01*
X42466666Y-102852438D02*
X42561904Y-102947676D01*
X42561904Y-102947676D02*
X42609523Y-103042914D01*
X42609523Y-103042914D02*
X42657142Y-103233390D01*
X42657142Y-103233390D02*
X42657142Y-103376247D01*
X42657142Y-103376247D02*
X42609523Y-103566723D01*
X42609523Y-103566723D02*
X42561904Y-103661961D01*
X42561904Y-103661961D02*
X42466666Y-103757200D01*
X42466666Y-103757200D02*
X42323809Y-103804819D01*
X42323809Y-103804819D02*
X42085714Y-103804819D01*
X43609523Y-103804819D02*
X43038095Y-103804819D01*
X43323809Y-103804819D02*
X43323809Y-102804819D01*
X43323809Y-102804819D02*
X43228571Y-102947676D01*
X43228571Y-102947676D02*
X43133333Y-103042914D01*
X43133333Y-103042914D02*
X43038095Y-103090533D01*
X44561904Y-103804819D02*
X43990476Y-103804819D01*
X44276190Y-103804819D02*
X44276190Y-102804819D01*
X44276190Y-102804819D02*
X44180952Y-102947676D01*
X44180952Y-102947676D02*
X44085714Y-103042914D01*
X44085714Y-103042914D02*
X43990476Y-103090533D01*
X74211905Y-27104819D02*
X74211905Y-26104819D01*
X74211905Y-26104819D02*
X74450000Y-26104819D01*
X74450000Y-26104819D02*
X74592857Y-26152438D01*
X74592857Y-26152438D02*
X74688095Y-26247676D01*
X74688095Y-26247676D02*
X74735714Y-26342914D01*
X74735714Y-26342914D02*
X74783333Y-26533390D01*
X74783333Y-26533390D02*
X74783333Y-26676247D01*
X74783333Y-26676247D02*
X74735714Y-26866723D01*
X74735714Y-26866723D02*
X74688095Y-26961961D01*
X74688095Y-26961961D02*
X74592857Y-27057200D01*
X74592857Y-27057200D02*
X74450000Y-27104819D01*
X74450000Y-27104819D02*
X74211905Y-27104819D01*
X75640476Y-26104819D02*
X75450000Y-26104819D01*
X75450000Y-26104819D02*
X75354762Y-26152438D01*
X75354762Y-26152438D02*
X75307143Y-26200057D01*
X75307143Y-26200057D02*
X75211905Y-26342914D01*
X75211905Y-26342914D02*
X75164286Y-26533390D01*
X75164286Y-26533390D02*
X75164286Y-26914342D01*
X75164286Y-26914342D02*
X75211905Y-27009580D01*
X75211905Y-27009580D02*
X75259524Y-27057200D01*
X75259524Y-27057200D02*
X75354762Y-27104819D01*
X75354762Y-27104819D02*
X75545238Y-27104819D01*
X75545238Y-27104819D02*
X75640476Y-27057200D01*
X75640476Y-27057200D02*
X75688095Y-27009580D01*
X75688095Y-27009580D02*
X75735714Y-26914342D01*
X75735714Y-26914342D02*
X75735714Y-26676247D01*
X75735714Y-26676247D02*
X75688095Y-26581009D01*
X75688095Y-26581009D02*
X75640476Y-26533390D01*
X75640476Y-26533390D02*
X75545238Y-26485771D01*
X75545238Y-26485771D02*
X75354762Y-26485771D01*
X75354762Y-26485771D02*
X75259524Y-26533390D01*
X75259524Y-26533390D02*
X75211905Y-26581009D01*
X75211905Y-26581009D02*
X75164286Y-26676247D01*
X39874819Y-102756666D02*
X39398628Y-103089999D01*
X39874819Y-103328094D02*
X38874819Y-103328094D01*
X38874819Y-103328094D02*
X38874819Y-102947142D01*
X38874819Y-102947142D02*
X38922438Y-102851904D01*
X38922438Y-102851904D02*
X38970057Y-102804285D01*
X38970057Y-102804285D02*
X39065295Y-102756666D01*
X39065295Y-102756666D02*
X39208152Y-102756666D01*
X39208152Y-102756666D02*
X39303390Y-102804285D01*
X39303390Y-102804285D02*
X39351009Y-102851904D01*
X39351009Y-102851904D02*
X39398628Y-102947142D01*
X39398628Y-102947142D02*
X39398628Y-103328094D01*
X38874819Y-102423332D02*
X38874819Y-101756666D01*
X38874819Y-101756666D02*
X39874819Y-102185237D01*
X119238095Y-26254819D02*
X119238095Y-25254819D01*
X119238095Y-25731009D02*
X119809523Y-25731009D01*
X119809523Y-26254819D02*
X119809523Y-25254819D01*
X120238095Y-25350057D02*
X120285714Y-25302438D01*
X120285714Y-25302438D02*
X120380952Y-25254819D01*
X120380952Y-25254819D02*
X120619047Y-25254819D01*
X120619047Y-25254819D02*
X120714285Y-25302438D01*
X120714285Y-25302438D02*
X120761904Y-25350057D01*
X120761904Y-25350057D02*
X120809523Y-25445295D01*
X120809523Y-25445295D02*
X120809523Y-25540533D01*
X120809523Y-25540533D02*
X120761904Y-25683390D01*
X120761904Y-25683390D02*
X120190476Y-26254819D01*
X120190476Y-26254819D02*
X120809523Y-26254819D01*
X80833333Y-74859580D02*
X80785714Y-74907200D01*
X80785714Y-74907200D02*
X80642857Y-74954819D01*
X80642857Y-74954819D02*
X80547619Y-74954819D01*
X80547619Y-74954819D02*
X80404762Y-74907200D01*
X80404762Y-74907200D02*
X80309524Y-74811961D01*
X80309524Y-74811961D02*
X80261905Y-74716723D01*
X80261905Y-74716723D02*
X80214286Y-74526247D01*
X80214286Y-74526247D02*
X80214286Y-74383390D01*
X80214286Y-74383390D02*
X80261905Y-74192914D01*
X80261905Y-74192914D02*
X80309524Y-74097676D01*
X80309524Y-74097676D02*
X80404762Y-74002438D01*
X80404762Y-74002438D02*
X80547619Y-73954819D01*
X80547619Y-73954819D02*
X80642857Y-73954819D01*
X80642857Y-73954819D02*
X80785714Y-74002438D01*
X80785714Y-74002438D02*
X80833333Y-74050057D01*
X81404762Y-74383390D02*
X81309524Y-74335771D01*
X81309524Y-74335771D02*
X81261905Y-74288152D01*
X81261905Y-74288152D02*
X81214286Y-74192914D01*
X81214286Y-74192914D02*
X81214286Y-74145295D01*
X81214286Y-74145295D02*
X81261905Y-74050057D01*
X81261905Y-74050057D02*
X81309524Y-74002438D01*
X81309524Y-74002438D02*
X81404762Y-73954819D01*
X81404762Y-73954819D02*
X81595238Y-73954819D01*
X81595238Y-73954819D02*
X81690476Y-74002438D01*
X81690476Y-74002438D02*
X81738095Y-74050057D01*
X81738095Y-74050057D02*
X81785714Y-74145295D01*
X81785714Y-74145295D02*
X81785714Y-74192914D01*
X81785714Y-74192914D02*
X81738095Y-74288152D01*
X81738095Y-74288152D02*
X81690476Y-74335771D01*
X81690476Y-74335771D02*
X81595238Y-74383390D01*
X81595238Y-74383390D02*
X81404762Y-74383390D01*
X81404762Y-74383390D02*
X81309524Y-74431009D01*
X81309524Y-74431009D02*
X81261905Y-74478628D01*
X81261905Y-74478628D02*
X81214286Y-74573866D01*
X81214286Y-74573866D02*
X81214286Y-74764342D01*
X81214286Y-74764342D02*
X81261905Y-74859580D01*
X81261905Y-74859580D02*
X81309524Y-74907200D01*
X81309524Y-74907200D02*
X81404762Y-74954819D01*
X81404762Y-74954819D02*
X81595238Y-74954819D01*
X81595238Y-74954819D02*
X81690476Y-74907200D01*
X81690476Y-74907200D02*
X81738095Y-74859580D01*
X81738095Y-74859580D02*
X81785714Y-74764342D01*
X81785714Y-74764342D02*
X81785714Y-74573866D01*
X81785714Y-74573866D02*
X81738095Y-74478628D01*
X81738095Y-74478628D02*
X81690476Y-74431009D01*
X81690476Y-74431009D02*
X81595238Y-74383390D01*
X50833333Y-90609580D02*
X50785714Y-90657200D01*
X50785714Y-90657200D02*
X50642857Y-90704819D01*
X50642857Y-90704819D02*
X50547619Y-90704819D01*
X50547619Y-90704819D02*
X50404762Y-90657200D01*
X50404762Y-90657200D02*
X50309524Y-90561961D01*
X50309524Y-90561961D02*
X50261905Y-90466723D01*
X50261905Y-90466723D02*
X50214286Y-90276247D01*
X50214286Y-90276247D02*
X50214286Y-90133390D01*
X50214286Y-90133390D02*
X50261905Y-89942914D01*
X50261905Y-89942914D02*
X50309524Y-89847676D01*
X50309524Y-89847676D02*
X50404762Y-89752438D01*
X50404762Y-89752438D02*
X50547619Y-89704819D01*
X50547619Y-89704819D02*
X50642857Y-89704819D01*
X50642857Y-89704819D02*
X50785714Y-89752438D01*
X50785714Y-89752438D02*
X50833333Y-89800057D01*
X51214286Y-89800057D02*
X51261905Y-89752438D01*
X51261905Y-89752438D02*
X51357143Y-89704819D01*
X51357143Y-89704819D02*
X51595238Y-89704819D01*
X51595238Y-89704819D02*
X51690476Y-89752438D01*
X51690476Y-89752438D02*
X51738095Y-89800057D01*
X51738095Y-89800057D02*
X51785714Y-89895295D01*
X51785714Y-89895295D02*
X51785714Y-89990533D01*
X51785714Y-89990533D02*
X51738095Y-90133390D01*
X51738095Y-90133390D02*
X51166667Y-90704819D01*
X51166667Y-90704819D02*
X51785714Y-90704819D01*
D12*
X36866667Y-101037404D02*
X36828571Y-101075500D01*
X36828571Y-101075500D02*
X36714286Y-101113595D01*
X36714286Y-101113595D02*
X36638095Y-101113595D01*
X36638095Y-101113595D02*
X36523809Y-101075500D01*
X36523809Y-101075500D02*
X36447619Y-100999309D01*
X36447619Y-100999309D02*
X36409524Y-100923119D01*
X36409524Y-100923119D02*
X36371428Y-100770738D01*
X36371428Y-100770738D02*
X36371428Y-100656452D01*
X36371428Y-100656452D02*
X36409524Y-100504071D01*
X36409524Y-100504071D02*
X36447619Y-100427880D01*
X36447619Y-100427880D02*
X36523809Y-100351690D01*
X36523809Y-100351690D02*
X36638095Y-100313595D01*
X36638095Y-100313595D02*
X36714286Y-100313595D01*
X36714286Y-100313595D02*
X36828571Y-100351690D01*
X36828571Y-100351690D02*
X36866667Y-100389785D01*
X37133333Y-100313595D02*
X37666667Y-100313595D01*
X37666667Y-100313595D02*
X37323809Y-101113595D01*
D10*
X41488095Y-101454819D02*
X41488095Y-102264342D01*
X41488095Y-102264342D02*
X41535714Y-102359580D01*
X41535714Y-102359580D02*
X41583333Y-102407200D01*
X41583333Y-102407200D02*
X41678571Y-102454819D01*
X41678571Y-102454819D02*
X41869047Y-102454819D01*
X41869047Y-102454819D02*
X41964285Y-102407200D01*
X41964285Y-102407200D02*
X42011904Y-102359580D01*
X42011904Y-102359580D02*
X42059523Y-102264342D01*
X42059523Y-102264342D02*
X42059523Y-101454819D01*
X42440476Y-101454819D02*
X43059523Y-101454819D01*
X43059523Y-101454819D02*
X42726190Y-101835771D01*
X42726190Y-101835771D02*
X42869047Y-101835771D01*
X42869047Y-101835771D02*
X42964285Y-101883390D01*
X42964285Y-101883390D02*
X43011904Y-101931009D01*
X43011904Y-101931009D02*
X43059523Y-102026247D01*
X43059523Y-102026247D02*
X43059523Y-102264342D01*
X43059523Y-102264342D02*
X43011904Y-102359580D01*
X43011904Y-102359580D02*
X42964285Y-102407200D01*
X42964285Y-102407200D02*
X42869047Y-102454819D01*
X42869047Y-102454819D02*
X42583333Y-102454819D01*
X42583333Y-102454819D02*
X42488095Y-102407200D01*
X42488095Y-102407200D02*
X42440476Y-102359580D01*
X48034819Y-74416666D02*
X47558628Y-74749999D01*
X48034819Y-74988094D02*
X47034819Y-74988094D01*
X47034819Y-74988094D02*
X47034819Y-74607142D01*
X47034819Y-74607142D02*
X47082438Y-74511904D01*
X47082438Y-74511904D02*
X47130057Y-74464285D01*
X47130057Y-74464285D02*
X47225295Y-74416666D01*
X47225295Y-74416666D02*
X47368152Y-74416666D01*
X47368152Y-74416666D02*
X47463390Y-74464285D01*
X47463390Y-74464285D02*
X47511009Y-74511904D01*
X47511009Y-74511904D02*
X47558628Y-74607142D01*
X47558628Y-74607142D02*
X47558628Y-74988094D01*
X47368152Y-73559523D02*
X48034819Y-73559523D01*
X46987200Y-73797618D02*
X47701485Y-74035713D01*
X47701485Y-74035713D02*
X47701485Y-73416666D01*
X35257142Y-74924819D02*
X34923809Y-74448628D01*
X34685714Y-74924819D02*
X34685714Y-73924819D01*
X34685714Y-73924819D02*
X35066666Y-73924819D01*
X35066666Y-73924819D02*
X35161904Y-73972438D01*
X35161904Y-73972438D02*
X35209523Y-74020057D01*
X35209523Y-74020057D02*
X35257142Y-74115295D01*
X35257142Y-74115295D02*
X35257142Y-74258152D01*
X35257142Y-74258152D02*
X35209523Y-74353390D01*
X35209523Y-74353390D02*
X35161904Y-74401009D01*
X35161904Y-74401009D02*
X35066666Y-74448628D01*
X35066666Y-74448628D02*
X34685714Y-74448628D01*
X36209523Y-74924819D02*
X35638095Y-74924819D01*
X35923809Y-74924819D02*
X35923809Y-73924819D01*
X35923809Y-73924819D02*
X35828571Y-74067676D01*
X35828571Y-74067676D02*
X35733333Y-74162914D01*
X35733333Y-74162914D02*
X35638095Y-74210533D01*
X36542857Y-73924819D02*
X37161904Y-73924819D01*
X37161904Y-73924819D02*
X36828571Y-74305771D01*
X36828571Y-74305771D02*
X36971428Y-74305771D01*
X36971428Y-74305771D02*
X37066666Y-74353390D01*
X37066666Y-74353390D02*
X37114285Y-74401009D01*
X37114285Y-74401009D02*
X37161904Y-74496247D01*
X37161904Y-74496247D02*
X37161904Y-74734342D01*
X37161904Y-74734342D02*
X37114285Y-74829580D01*
X37114285Y-74829580D02*
X37066666Y-74877200D01*
X37066666Y-74877200D02*
X36971428Y-74924819D01*
X36971428Y-74924819D02*
X36685714Y-74924819D01*
X36685714Y-74924819D02*
X36590476Y-74877200D01*
X36590476Y-74877200D02*
X36542857Y-74829580D01*
X64607142Y-74454819D02*
X64273809Y-73978628D01*
X64035714Y-74454819D02*
X64035714Y-73454819D01*
X64035714Y-73454819D02*
X64416666Y-73454819D01*
X64416666Y-73454819D02*
X64511904Y-73502438D01*
X64511904Y-73502438D02*
X64559523Y-73550057D01*
X64559523Y-73550057D02*
X64607142Y-73645295D01*
X64607142Y-73645295D02*
X64607142Y-73788152D01*
X64607142Y-73788152D02*
X64559523Y-73883390D01*
X64559523Y-73883390D02*
X64511904Y-73931009D01*
X64511904Y-73931009D02*
X64416666Y-73978628D01*
X64416666Y-73978628D02*
X64035714Y-73978628D01*
X65559523Y-74454819D02*
X64988095Y-74454819D01*
X65273809Y-74454819D02*
X65273809Y-73454819D01*
X65273809Y-73454819D02*
X65178571Y-73597676D01*
X65178571Y-73597676D02*
X65083333Y-73692914D01*
X65083333Y-73692914D02*
X64988095Y-73740533D01*
X66511904Y-74454819D02*
X65940476Y-74454819D01*
X66226190Y-74454819D02*
X66226190Y-73454819D01*
X66226190Y-73454819D02*
X66130952Y-73597676D01*
X66130952Y-73597676D02*
X66035714Y-73692914D01*
X66035714Y-73692914D02*
X65940476Y-73740533D01*
X34854819Y-56675594D02*
X33854819Y-56675594D01*
X33854819Y-56675594D02*
X33854819Y-56437499D01*
X33854819Y-56437499D02*
X33902438Y-56294642D01*
X33902438Y-56294642D02*
X33997676Y-56199404D01*
X33997676Y-56199404D02*
X34092914Y-56151785D01*
X34092914Y-56151785D02*
X34283390Y-56104166D01*
X34283390Y-56104166D02*
X34426247Y-56104166D01*
X34426247Y-56104166D02*
X34616723Y-56151785D01*
X34616723Y-56151785D02*
X34711961Y-56199404D01*
X34711961Y-56199404D02*
X34807200Y-56294642D01*
X34807200Y-56294642D02*
X34854819Y-56437499D01*
X34854819Y-56437499D02*
X34854819Y-56675594D01*
X33854819Y-55770832D02*
X33854819Y-55151785D01*
X33854819Y-55151785D02*
X34235771Y-55485118D01*
X34235771Y-55485118D02*
X34235771Y-55342261D01*
X34235771Y-55342261D02*
X34283390Y-55247023D01*
X34283390Y-55247023D02*
X34331009Y-55199404D01*
X34331009Y-55199404D02*
X34426247Y-55151785D01*
X34426247Y-55151785D02*
X34664342Y-55151785D01*
X34664342Y-55151785D02*
X34759580Y-55199404D01*
X34759580Y-55199404D02*
X34807200Y-55247023D01*
X34807200Y-55247023D02*
X34854819Y-55342261D01*
X34854819Y-55342261D02*
X34854819Y-55627975D01*
X34854819Y-55627975D02*
X34807200Y-55723213D01*
X34807200Y-55723213D02*
X34759580Y-55770832D01*
X119238095Y-116254819D02*
X119238095Y-115254819D01*
X119238095Y-115731009D02*
X119809523Y-115731009D01*
X119809523Y-116254819D02*
X119809523Y-115254819D01*
X120190476Y-115254819D02*
X120809523Y-115254819D01*
X120809523Y-115254819D02*
X120476190Y-115635771D01*
X120476190Y-115635771D02*
X120619047Y-115635771D01*
X120619047Y-115635771D02*
X120714285Y-115683390D01*
X120714285Y-115683390D02*
X120761904Y-115731009D01*
X120761904Y-115731009D02*
X120809523Y-115826247D01*
X120809523Y-115826247D02*
X120809523Y-116064342D01*
X120809523Y-116064342D02*
X120761904Y-116159580D01*
X120761904Y-116159580D02*
X120714285Y-116207200D01*
X120714285Y-116207200D02*
X120619047Y-116254819D01*
X120619047Y-116254819D02*
X120333333Y-116254819D01*
X120333333Y-116254819D02*
X120238095Y-116207200D01*
X120238095Y-116207200D02*
X120190476Y-116159580D01*
X45783333Y-98114819D02*
X45450000Y-97638628D01*
X45211905Y-98114819D02*
X45211905Y-97114819D01*
X45211905Y-97114819D02*
X45592857Y-97114819D01*
X45592857Y-97114819D02*
X45688095Y-97162438D01*
X45688095Y-97162438D02*
X45735714Y-97210057D01*
X45735714Y-97210057D02*
X45783333Y-97305295D01*
X45783333Y-97305295D02*
X45783333Y-97448152D01*
X45783333Y-97448152D02*
X45735714Y-97543390D01*
X45735714Y-97543390D02*
X45688095Y-97591009D01*
X45688095Y-97591009D02*
X45592857Y-97638628D01*
X45592857Y-97638628D02*
X45211905Y-97638628D01*
X46259524Y-98114819D02*
X46450000Y-98114819D01*
X46450000Y-98114819D02*
X46545238Y-98067200D01*
X46545238Y-98067200D02*
X46592857Y-98019580D01*
X46592857Y-98019580D02*
X46688095Y-97876723D01*
X46688095Y-97876723D02*
X46735714Y-97686247D01*
X46735714Y-97686247D02*
X46735714Y-97305295D01*
X46735714Y-97305295D02*
X46688095Y-97210057D01*
X46688095Y-97210057D02*
X46640476Y-97162438D01*
X46640476Y-97162438D02*
X46545238Y-97114819D01*
X46545238Y-97114819D02*
X46354762Y-97114819D01*
X46354762Y-97114819D02*
X46259524Y-97162438D01*
X46259524Y-97162438D02*
X46211905Y-97210057D01*
X46211905Y-97210057D02*
X46164286Y-97305295D01*
X46164286Y-97305295D02*
X46164286Y-97543390D01*
X46164286Y-97543390D02*
X46211905Y-97638628D01*
X46211905Y-97638628D02*
X46259524Y-97686247D01*
X46259524Y-97686247D02*
X46354762Y-97733866D01*
X46354762Y-97733866D02*
X46545238Y-97733866D01*
X46545238Y-97733866D02*
X46640476Y-97686247D01*
X46640476Y-97686247D02*
X46688095Y-97638628D01*
X46688095Y-97638628D02*
X46735714Y-97543390D01*
X42461905Y-40054819D02*
X42461905Y-39054819D01*
X42461905Y-39054819D02*
X42700000Y-39054819D01*
X42700000Y-39054819D02*
X42842857Y-39102438D01*
X42842857Y-39102438D02*
X42938095Y-39197676D01*
X42938095Y-39197676D02*
X42985714Y-39292914D01*
X42985714Y-39292914D02*
X43033333Y-39483390D01*
X43033333Y-39483390D02*
X43033333Y-39626247D01*
X43033333Y-39626247D02*
X42985714Y-39816723D01*
X42985714Y-39816723D02*
X42938095Y-39911961D01*
X42938095Y-39911961D02*
X42842857Y-40007200D01*
X42842857Y-40007200D02*
X42700000Y-40054819D01*
X42700000Y-40054819D02*
X42461905Y-40054819D01*
X43938095Y-39054819D02*
X43461905Y-39054819D01*
X43461905Y-39054819D02*
X43414286Y-39531009D01*
X43414286Y-39531009D02*
X43461905Y-39483390D01*
X43461905Y-39483390D02*
X43557143Y-39435771D01*
X43557143Y-39435771D02*
X43795238Y-39435771D01*
X43795238Y-39435771D02*
X43890476Y-39483390D01*
X43890476Y-39483390D02*
X43938095Y-39531009D01*
X43938095Y-39531009D02*
X43985714Y-39626247D01*
X43985714Y-39626247D02*
X43985714Y-39864342D01*
X43985714Y-39864342D02*
X43938095Y-39959580D01*
X43938095Y-39959580D02*
X43890476Y-40007200D01*
X43890476Y-40007200D02*
X43795238Y-40054819D01*
X43795238Y-40054819D02*
X43557143Y-40054819D01*
X43557143Y-40054819D02*
X43461905Y-40007200D01*
X43461905Y-40007200D02*
X43414286Y-39959580D01*
X44283333Y-83359580D02*
X44235714Y-83407200D01*
X44235714Y-83407200D02*
X44092857Y-83454819D01*
X44092857Y-83454819D02*
X43997619Y-83454819D01*
X43997619Y-83454819D02*
X43854762Y-83407200D01*
X43854762Y-83407200D02*
X43759524Y-83311961D01*
X43759524Y-83311961D02*
X43711905Y-83216723D01*
X43711905Y-83216723D02*
X43664286Y-83026247D01*
X43664286Y-83026247D02*
X43664286Y-82883390D01*
X43664286Y-82883390D02*
X43711905Y-82692914D01*
X43711905Y-82692914D02*
X43759524Y-82597676D01*
X43759524Y-82597676D02*
X43854762Y-82502438D01*
X43854762Y-82502438D02*
X43997619Y-82454819D01*
X43997619Y-82454819D02*
X44092857Y-82454819D01*
X44092857Y-82454819D02*
X44235714Y-82502438D01*
X44235714Y-82502438D02*
X44283333Y-82550057D01*
X45140476Y-82454819D02*
X44950000Y-82454819D01*
X44950000Y-82454819D02*
X44854762Y-82502438D01*
X44854762Y-82502438D02*
X44807143Y-82550057D01*
X44807143Y-82550057D02*
X44711905Y-82692914D01*
X44711905Y-82692914D02*
X44664286Y-82883390D01*
X44664286Y-82883390D02*
X44664286Y-83264342D01*
X44664286Y-83264342D02*
X44711905Y-83359580D01*
X44711905Y-83359580D02*
X44759524Y-83407200D01*
X44759524Y-83407200D02*
X44854762Y-83454819D01*
X44854762Y-83454819D02*
X45045238Y-83454819D01*
X45045238Y-83454819D02*
X45140476Y-83407200D01*
X45140476Y-83407200D02*
X45188095Y-83359580D01*
X45188095Y-83359580D02*
X45235714Y-83264342D01*
X45235714Y-83264342D02*
X45235714Y-83026247D01*
X45235714Y-83026247D02*
X45188095Y-82931009D01*
X45188095Y-82931009D02*
X45140476Y-82883390D01*
X45140476Y-82883390D02*
X45045238Y-82835771D01*
X45045238Y-82835771D02*
X44854762Y-82835771D01*
X44854762Y-82835771D02*
X44759524Y-82883390D01*
X44759524Y-82883390D02*
X44711905Y-82931009D01*
X44711905Y-82931009D02*
X44664286Y-83026247D01*
X53583333Y-90859580D02*
X53535714Y-90907200D01*
X53535714Y-90907200D02*
X53392857Y-90954819D01*
X53392857Y-90954819D02*
X53297619Y-90954819D01*
X53297619Y-90954819D02*
X53154762Y-90907200D01*
X53154762Y-90907200D02*
X53059524Y-90811961D01*
X53059524Y-90811961D02*
X53011905Y-90716723D01*
X53011905Y-90716723D02*
X52964286Y-90526247D01*
X52964286Y-90526247D02*
X52964286Y-90383390D01*
X52964286Y-90383390D02*
X53011905Y-90192914D01*
X53011905Y-90192914D02*
X53059524Y-90097676D01*
X53059524Y-90097676D02*
X53154762Y-90002438D01*
X53154762Y-90002438D02*
X53297619Y-89954819D01*
X53297619Y-89954819D02*
X53392857Y-89954819D01*
X53392857Y-89954819D02*
X53535714Y-90002438D01*
X53535714Y-90002438D02*
X53583333Y-90050057D01*
X53916667Y-89954819D02*
X54535714Y-89954819D01*
X54535714Y-89954819D02*
X54202381Y-90335771D01*
X54202381Y-90335771D02*
X54345238Y-90335771D01*
X54345238Y-90335771D02*
X54440476Y-90383390D01*
X54440476Y-90383390D02*
X54488095Y-90431009D01*
X54488095Y-90431009D02*
X54535714Y-90526247D01*
X54535714Y-90526247D02*
X54535714Y-90764342D01*
X54535714Y-90764342D02*
X54488095Y-90859580D01*
X54488095Y-90859580D02*
X54440476Y-90907200D01*
X54440476Y-90907200D02*
X54345238Y-90954819D01*
X54345238Y-90954819D02*
X54059524Y-90954819D01*
X54059524Y-90954819D02*
X53964286Y-90907200D01*
X53964286Y-90907200D02*
X53916667Y-90859580D01*
X82833333Y-69859580D02*
X82785714Y-69907200D01*
X82785714Y-69907200D02*
X82642857Y-69954819D01*
X82642857Y-69954819D02*
X82547619Y-69954819D01*
X82547619Y-69954819D02*
X82404762Y-69907200D01*
X82404762Y-69907200D02*
X82309524Y-69811961D01*
X82309524Y-69811961D02*
X82261905Y-69716723D01*
X82261905Y-69716723D02*
X82214286Y-69526247D01*
X82214286Y-69526247D02*
X82214286Y-69383390D01*
X82214286Y-69383390D02*
X82261905Y-69192914D01*
X82261905Y-69192914D02*
X82309524Y-69097676D01*
X82309524Y-69097676D02*
X82404762Y-69002438D01*
X82404762Y-69002438D02*
X82547619Y-68954819D01*
X82547619Y-68954819D02*
X82642857Y-68954819D01*
X82642857Y-68954819D02*
X82785714Y-69002438D01*
X82785714Y-69002438D02*
X82833333Y-69050057D01*
X83309524Y-69954819D02*
X83500000Y-69954819D01*
X83500000Y-69954819D02*
X83595238Y-69907200D01*
X83595238Y-69907200D02*
X83642857Y-69859580D01*
X83642857Y-69859580D02*
X83738095Y-69716723D01*
X83738095Y-69716723D02*
X83785714Y-69526247D01*
X83785714Y-69526247D02*
X83785714Y-69145295D01*
X83785714Y-69145295D02*
X83738095Y-69050057D01*
X83738095Y-69050057D02*
X83690476Y-69002438D01*
X83690476Y-69002438D02*
X83595238Y-68954819D01*
X83595238Y-68954819D02*
X83404762Y-68954819D01*
X83404762Y-68954819D02*
X83309524Y-69002438D01*
X83309524Y-69002438D02*
X83261905Y-69050057D01*
X83261905Y-69050057D02*
X83214286Y-69145295D01*
X83214286Y-69145295D02*
X83214286Y-69383390D01*
X83214286Y-69383390D02*
X83261905Y-69478628D01*
X83261905Y-69478628D02*
X83309524Y-69526247D01*
X83309524Y-69526247D02*
X83404762Y-69573866D01*
X83404762Y-69573866D02*
X83595238Y-69573866D01*
X83595238Y-69573866D02*
X83690476Y-69526247D01*
X83690476Y-69526247D02*
X83738095Y-69478628D01*
X83738095Y-69478628D02*
X83785714Y-69383390D01*
X43039580Y-90191666D02*
X43087200Y-90239285D01*
X43087200Y-90239285D02*
X43134819Y-90382142D01*
X43134819Y-90382142D02*
X43134819Y-90477380D01*
X43134819Y-90477380D02*
X43087200Y-90620237D01*
X43087200Y-90620237D02*
X42991961Y-90715475D01*
X42991961Y-90715475D02*
X42896723Y-90763094D01*
X42896723Y-90763094D02*
X42706247Y-90810713D01*
X42706247Y-90810713D02*
X42563390Y-90810713D01*
X42563390Y-90810713D02*
X42372914Y-90763094D01*
X42372914Y-90763094D02*
X42277676Y-90715475D01*
X42277676Y-90715475D02*
X42182438Y-90620237D01*
X42182438Y-90620237D02*
X42134819Y-90477380D01*
X42134819Y-90477380D02*
X42134819Y-90382142D01*
X42134819Y-90382142D02*
X42182438Y-90239285D01*
X42182438Y-90239285D02*
X42230057Y-90191666D01*
X43134819Y-89239285D02*
X43134819Y-89810713D01*
X43134819Y-89524999D02*
X42134819Y-89524999D01*
X42134819Y-89524999D02*
X42277676Y-89620237D01*
X42277676Y-89620237D02*
X42372914Y-89715475D01*
X42372914Y-89715475D02*
X42420533Y-89810713D01*
X30842261Y-93550057D02*
X30747023Y-93502438D01*
X30747023Y-93502438D02*
X30651785Y-93407200D01*
X30651785Y-93407200D02*
X30508928Y-93264342D01*
X30508928Y-93264342D02*
X30413690Y-93216723D01*
X30413690Y-93216723D02*
X30318452Y-93216723D01*
X30366071Y-93454819D02*
X30270833Y-93407200D01*
X30270833Y-93407200D02*
X30175595Y-93311961D01*
X30175595Y-93311961D02*
X30127976Y-93121485D01*
X30127976Y-93121485D02*
X30127976Y-92788152D01*
X30127976Y-92788152D02*
X30175595Y-92597676D01*
X30175595Y-92597676D02*
X30270833Y-92502438D01*
X30270833Y-92502438D02*
X30366071Y-92454819D01*
X30366071Y-92454819D02*
X30556547Y-92454819D01*
X30556547Y-92454819D02*
X30651785Y-92502438D01*
X30651785Y-92502438D02*
X30747023Y-92597676D01*
X30747023Y-92597676D02*
X30794642Y-92788152D01*
X30794642Y-92788152D02*
X30794642Y-93121485D01*
X30794642Y-93121485D02*
X30747023Y-93311961D01*
X30747023Y-93311961D02*
X30651785Y-93407200D01*
X30651785Y-93407200D02*
X30556547Y-93454819D01*
X30556547Y-93454819D02*
X30366071Y-93454819D01*
X31747023Y-93454819D02*
X31175595Y-93454819D01*
X31461309Y-93454819D02*
X31461309Y-92454819D01*
X31461309Y-92454819D02*
X31366071Y-92597676D01*
X31366071Y-92597676D02*
X31270833Y-92692914D01*
X31270833Y-92692914D02*
X31175595Y-92740533D01*
X44083333Y-88204819D02*
X43750000Y-87728628D01*
X43511905Y-88204819D02*
X43511905Y-87204819D01*
X43511905Y-87204819D02*
X43892857Y-87204819D01*
X43892857Y-87204819D02*
X43988095Y-87252438D01*
X43988095Y-87252438D02*
X44035714Y-87300057D01*
X44035714Y-87300057D02*
X44083333Y-87395295D01*
X44083333Y-87395295D02*
X44083333Y-87538152D01*
X44083333Y-87538152D02*
X44035714Y-87633390D01*
X44035714Y-87633390D02*
X43988095Y-87681009D01*
X43988095Y-87681009D02*
X43892857Y-87728628D01*
X43892857Y-87728628D02*
X43511905Y-87728628D01*
X44464286Y-87300057D02*
X44511905Y-87252438D01*
X44511905Y-87252438D02*
X44607143Y-87204819D01*
X44607143Y-87204819D02*
X44845238Y-87204819D01*
X44845238Y-87204819D02*
X44940476Y-87252438D01*
X44940476Y-87252438D02*
X44988095Y-87300057D01*
X44988095Y-87300057D02*
X45035714Y-87395295D01*
X45035714Y-87395295D02*
X45035714Y-87490533D01*
X45035714Y-87490533D02*
X44988095Y-87633390D01*
X44988095Y-87633390D02*
X44416667Y-88204819D01*
X44416667Y-88204819D02*
X45035714Y-88204819D01*
X57083333Y-74454819D02*
X56750000Y-73978628D01*
X56511905Y-74454819D02*
X56511905Y-73454819D01*
X56511905Y-73454819D02*
X56892857Y-73454819D01*
X56892857Y-73454819D02*
X56988095Y-73502438D01*
X56988095Y-73502438D02*
X57035714Y-73550057D01*
X57035714Y-73550057D02*
X57083333Y-73645295D01*
X57083333Y-73645295D02*
X57083333Y-73788152D01*
X57083333Y-73788152D02*
X57035714Y-73883390D01*
X57035714Y-73883390D02*
X56988095Y-73931009D01*
X56988095Y-73931009D02*
X56892857Y-73978628D01*
X56892857Y-73978628D02*
X56511905Y-73978628D01*
X57988095Y-73454819D02*
X57511905Y-73454819D01*
X57511905Y-73454819D02*
X57464286Y-73931009D01*
X57464286Y-73931009D02*
X57511905Y-73883390D01*
X57511905Y-73883390D02*
X57607143Y-73835771D01*
X57607143Y-73835771D02*
X57845238Y-73835771D01*
X57845238Y-73835771D02*
X57940476Y-73883390D01*
X57940476Y-73883390D02*
X57988095Y-73931009D01*
X57988095Y-73931009D02*
X58035714Y-74026247D01*
X58035714Y-74026247D02*
X58035714Y-74264342D01*
X58035714Y-74264342D02*
X57988095Y-74359580D01*
X57988095Y-74359580D02*
X57940476Y-74407200D01*
X57940476Y-74407200D02*
X57845238Y-74454819D01*
X57845238Y-74454819D02*
X57607143Y-74454819D01*
X57607143Y-74454819D02*
X57511905Y-74407200D01*
X57511905Y-74407200D02*
X57464286Y-74359580D01*
X69357142Y-72204819D02*
X69023809Y-71728628D01*
X68785714Y-72204819D02*
X68785714Y-71204819D01*
X68785714Y-71204819D02*
X69166666Y-71204819D01*
X69166666Y-71204819D02*
X69261904Y-71252438D01*
X69261904Y-71252438D02*
X69309523Y-71300057D01*
X69309523Y-71300057D02*
X69357142Y-71395295D01*
X69357142Y-71395295D02*
X69357142Y-71538152D01*
X69357142Y-71538152D02*
X69309523Y-71633390D01*
X69309523Y-71633390D02*
X69261904Y-71681009D01*
X69261904Y-71681009D02*
X69166666Y-71728628D01*
X69166666Y-71728628D02*
X68785714Y-71728628D01*
X70309523Y-72204819D02*
X69738095Y-72204819D01*
X70023809Y-72204819D02*
X70023809Y-71204819D01*
X70023809Y-71204819D02*
X69928571Y-71347676D01*
X69928571Y-71347676D02*
X69833333Y-71442914D01*
X69833333Y-71442914D02*
X69738095Y-71490533D01*
X70690476Y-71300057D02*
X70738095Y-71252438D01*
X70738095Y-71252438D02*
X70833333Y-71204819D01*
X70833333Y-71204819D02*
X71071428Y-71204819D01*
X71071428Y-71204819D02*
X71166666Y-71252438D01*
X71166666Y-71252438D02*
X71214285Y-71300057D01*
X71214285Y-71300057D02*
X71261904Y-71395295D01*
X71261904Y-71395295D02*
X71261904Y-71490533D01*
X71261904Y-71490533D02*
X71214285Y-71633390D01*
X71214285Y-71633390D02*
X70642857Y-72204819D01*
X70642857Y-72204819D02*
X71261904Y-72204819D01*
X40038095Y-83604819D02*
X40038095Y-84414342D01*
X40038095Y-84414342D02*
X40085714Y-84509580D01*
X40085714Y-84509580D02*
X40133333Y-84557200D01*
X40133333Y-84557200D02*
X40228571Y-84604819D01*
X40228571Y-84604819D02*
X40419047Y-84604819D01*
X40419047Y-84604819D02*
X40514285Y-84557200D01*
X40514285Y-84557200D02*
X40561904Y-84509580D01*
X40561904Y-84509580D02*
X40609523Y-84414342D01*
X40609523Y-84414342D02*
X40609523Y-83604819D01*
X41038095Y-83700057D02*
X41085714Y-83652438D01*
X41085714Y-83652438D02*
X41180952Y-83604819D01*
X41180952Y-83604819D02*
X41419047Y-83604819D01*
X41419047Y-83604819D02*
X41514285Y-83652438D01*
X41514285Y-83652438D02*
X41561904Y-83700057D01*
X41561904Y-83700057D02*
X41609523Y-83795295D01*
X41609523Y-83795295D02*
X41609523Y-83890533D01*
X41609523Y-83890533D02*
X41561904Y-84033390D01*
X41561904Y-84033390D02*
X40990476Y-84604819D01*
X40990476Y-84604819D02*
X41609523Y-84604819D01*
X106061905Y-103804819D02*
X106061905Y-102804819D01*
X106061905Y-102804819D02*
X106300000Y-102804819D01*
X106300000Y-102804819D02*
X106442857Y-102852438D01*
X106442857Y-102852438D02*
X106538095Y-102947676D01*
X106538095Y-102947676D02*
X106585714Y-103042914D01*
X106585714Y-103042914D02*
X106633333Y-103233390D01*
X106633333Y-103233390D02*
X106633333Y-103376247D01*
X106633333Y-103376247D02*
X106585714Y-103566723D01*
X106585714Y-103566723D02*
X106538095Y-103661961D01*
X106538095Y-103661961D02*
X106442857Y-103757200D01*
X106442857Y-103757200D02*
X106300000Y-103804819D01*
X106300000Y-103804819D02*
X106061905Y-103804819D01*
X107109524Y-103804819D02*
X107300000Y-103804819D01*
X107300000Y-103804819D02*
X107395238Y-103757200D01*
X107395238Y-103757200D02*
X107442857Y-103709580D01*
X107442857Y-103709580D02*
X107538095Y-103566723D01*
X107538095Y-103566723D02*
X107585714Y-103376247D01*
X107585714Y-103376247D02*
X107585714Y-102995295D01*
X107585714Y-102995295D02*
X107538095Y-102900057D01*
X107538095Y-102900057D02*
X107490476Y-102852438D01*
X107490476Y-102852438D02*
X107395238Y-102804819D01*
X107395238Y-102804819D02*
X107204762Y-102804819D01*
X107204762Y-102804819D02*
X107109524Y-102852438D01*
X107109524Y-102852438D02*
X107061905Y-102900057D01*
X107061905Y-102900057D02*
X107014286Y-102995295D01*
X107014286Y-102995295D02*
X107014286Y-103233390D01*
X107014286Y-103233390D02*
X107061905Y-103328628D01*
X107061905Y-103328628D02*
X107109524Y-103376247D01*
X107109524Y-103376247D02*
X107204762Y-103423866D01*
X107204762Y-103423866D02*
X107395238Y-103423866D01*
X107395238Y-103423866D02*
X107490476Y-103376247D01*
X107490476Y-103376247D02*
X107538095Y-103328628D01*
X107538095Y-103328628D02*
X107585714Y-103233390D01*
X34843333Y-104954819D02*
X34510000Y-104478628D01*
X34271905Y-104954819D02*
X34271905Y-103954819D01*
X34271905Y-103954819D02*
X34652857Y-103954819D01*
X34652857Y-103954819D02*
X34748095Y-104002438D01*
X34748095Y-104002438D02*
X34795714Y-104050057D01*
X34795714Y-104050057D02*
X34843333Y-104145295D01*
X34843333Y-104145295D02*
X34843333Y-104288152D01*
X34843333Y-104288152D02*
X34795714Y-104383390D01*
X34795714Y-104383390D02*
X34748095Y-104431009D01*
X34748095Y-104431009D02*
X34652857Y-104478628D01*
X34652857Y-104478628D02*
X34271905Y-104478628D01*
X35700476Y-103954819D02*
X35510000Y-103954819D01*
X35510000Y-103954819D02*
X35414762Y-104002438D01*
X35414762Y-104002438D02*
X35367143Y-104050057D01*
X35367143Y-104050057D02*
X35271905Y-104192914D01*
X35271905Y-104192914D02*
X35224286Y-104383390D01*
X35224286Y-104383390D02*
X35224286Y-104764342D01*
X35224286Y-104764342D02*
X35271905Y-104859580D01*
X35271905Y-104859580D02*
X35319524Y-104907200D01*
X35319524Y-104907200D02*
X35414762Y-104954819D01*
X35414762Y-104954819D02*
X35605238Y-104954819D01*
X35605238Y-104954819D02*
X35700476Y-104907200D01*
X35700476Y-104907200D02*
X35748095Y-104859580D01*
X35748095Y-104859580D02*
X35795714Y-104764342D01*
X35795714Y-104764342D02*
X35795714Y-104526247D01*
X35795714Y-104526247D02*
X35748095Y-104431009D01*
X35748095Y-104431009D02*
X35700476Y-104383390D01*
X35700476Y-104383390D02*
X35605238Y-104335771D01*
X35605238Y-104335771D02*
X35414762Y-104335771D01*
X35414762Y-104335771D02*
X35319524Y-104383390D01*
X35319524Y-104383390D02*
X35271905Y-104431009D01*
X35271905Y-104431009D02*
X35224286Y-104526247D01*
X29238095Y-26254819D02*
X29238095Y-25254819D01*
X29238095Y-25731009D02*
X29809523Y-25731009D01*
X29809523Y-26254819D02*
X29809523Y-25254819D01*
X30809523Y-26254819D02*
X30238095Y-26254819D01*
X30523809Y-26254819D02*
X30523809Y-25254819D01*
X30523809Y-25254819D02*
X30428571Y-25397676D01*
X30428571Y-25397676D02*
X30333333Y-25492914D01*
X30333333Y-25492914D02*
X30238095Y-25540533D01*
X29261905Y-71954819D02*
X29261905Y-70954819D01*
X29261905Y-70954819D02*
X29500000Y-70954819D01*
X29500000Y-70954819D02*
X29642857Y-71002438D01*
X29642857Y-71002438D02*
X29738095Y-71097676D01*
X29738095Y-71097676D02*
X29785714Y-71192914D01*
X29785714Y-71192914D02*
X29833333Y-71383390D01*
X29833333Y-71383390D02*
X29833333Y-71526247D01*
X29833333Y-71526247D02*
X29785714Y-71716723D01*
X29785714Y-71716723D02*
X29738095Y-71811961D01*
X29738095Y-71811961D02*
X29642857Y-71907200D01*
X29642857Y-71907200D02*
X29500000Y-71954819D01*
X29500000Y-71954819D02*
X29261905Y-71954819D01*
X30690476Y-71288152D02*
X30690476Y-71954819D01*
X30452381Y-70907200D02*
X30214286Y-71621485D01*
X30214286Y-71621485D02*
X30833333Y-71621485D01*
X105961905Y-40104819D02*
X105961905Y-39104819D01*
X105961905Y-39104819D02*
X106200000Y-39104819D01*
X106200000Y-39104819D02*
X106342857Y-39152438D01*
X106342857Y-39152438D02*
X106438095Y-39247676D01*
X106438095Y-39247676D02*
X106485714Y-39342914D01*
X106485714Y-39342914D02*
X106533333Y-39533390D01*
X106533333Y-39533390D02*
X106533333Y-39676247D01*
X106533333Y-39676247D02*
X106485714Y-39866723D01*
X106485714Y-39866723D02*
X106438095Y-39961961D01*
X106438095Y-39961961D02*
X106342857Y-40057200D01*
X106342857Y-40057200D02*
X106200000Y-40104819D01*
X106200000Y-40104819D02*
X105961905Y-40104819D01*
X106866667Y-39104819D02*
X107533333Y-39104819D01*
X107533333Y-39104819D02*
X107104762Y-40104819D01*
X32117142Y-60124819D02*
X31783809Y-59648628D01*
X31545714Y-60124819D02*
X31545714Y-59124819D01*
X31545714Y-59124819D02*
X31926666Y-59124819D01*
X31926666Y-59124819D02*
X32021904Y-59172438D01*
X32021904Y-59172438D02*
X32069523Y-59220057D01*
X32069523Y-59220057D02*
X32117142Y-59315295D01*
X32117142Y-59315295D02*
X32117142Y-59458152D01*
X32117142Y-59458152D02*
X32069523Y-59553390D01*
X32069523Y-59553390D02*
X32021904Y-59601009D01*
X32021904Y-59601009D02*
X31926666Y-59648628D01*
X31926666Y-59648628D02*
X31545714Y-59648628D01*
X33069523Y-60124819D02*
X32498095Y-60124819D01*
X32783809Y-60124819D02*
X32783809Y-59124819D01*
X32783809Y-59124819D02*
X32688571Y-59267676D01*
X32688571Y-59267676D02*
X32593333Y-59362914D01*
X32593333Y-59362914D02*
X32498095Y-59410533D01*
X33688571Y-59124819D02*
X33783809Y-59124819D01*
X33783809Y-59124819D02*
X33879047Y-59172438D01*
X33879047Y-59172438D02*
X33926666Y-59220057D01*
X33926666Y-59220057D02*
X33974285Y-59315295D01*
X33974285Y-59315295D02*
X34021904Y-59505771D01*
X34021904Y-59505771D02*
X34021904Y-59743866D01*
X34021904Y-59743866D02*
X33974285Y-59934342D01*
X33974285Y-59934342D02*
X33926666Y-60029580D01*
X33926666Y-60029580D02*
X33879047Y-60077200D01*
X33879047Y-60077200D02*
X33783809Y-60124819D01*
X33783809Y-60124819D02*
X33688571Y-60124819D01*
X33688571Y-60124819D02*
X33593333Y-60077200D01*
X33593333Y-60077200D02*
X33545714Y-60029580D01*
X33545714Y-60029580D02*
X33498095Y-59934342D01*
X33498095Y-59934342D02*
X33450476Y-59743866D01*
X33450476Y-59743866D02*
X33450476Y-59505771D01*
X33450476Y-59505771D02*
X33498095Y-59315295D01*
X33498095Y-59315295D02*
X33545714Y-59220057D01*
X33545714Y-59220057D02*
X33593333Y-59172438D01*
X33593333Y-59172438D02*
X33688571Y-59124819D01*
X53583333Y-75929580D02*
X53535714Y-75977200D01*
X53535714Y-75977200D02*
X53392857Y-76024819D01*
X53392857Y-76024819D02*
X53297619Y-76024819D01*
X53297619Y-76024819D02*
X53154762Y-75977200D01*
X53154762Y-75977200D02*
X53059524Y-75881961D01*
X53059524Y-75881961D02*
X53011905Y-75786723D01*
X53011905Y-75786723D02*
X52964286Y-75596247D01*
X52964286Y-75596247D02*
X52964286Y-75453390D01*
X52964286Y-75453390D02*
X53011905Y-75262914D01*
X53011905Y-75262914D02*
X53059524Y-75167676D01*
X53059524Y-75167676D02*
X53154762Y-75072438D01*
X53154762Y-75072438D02*
X53297619Y-75024819D01*
X53297619Y-75024819D02*
X53392857Y-75024819D01*
X53392857Y-75024819D02*
X53535714Y-75072438D01*
X53535714Y-75072438D02*
X53583333Y-75120057D01*
X54488095Y-75024819D02*
X54011905Y-75024819D01*
X54011905Y-75024819D02*
X53964286Y-75501009D01*
X53964286Y-75501009D02*
X54011905Y-75453390D01*
X54011905Y-75453390D02*
X54107143Y-75405771D01*
X54107143Y-75405771D02*
X54345238Y-75405771D01*
X54345238Y-75405771D02*
X54440476Y-75453390D01*
X54440476Y-75453390D02*
X54488095Y-75501009D01*
X54488095Y-75501009D02*
X54535714Y-75596247D01*
X54535714Y-75596247D02*
X54535714Y-75834342D01*
X54535714Y-75834342D02*
X54488095Y-75929580D01*
X54488095Y-75929580D02*
X54440476Y-75977200D01*
X54440476Y-75977200D02*
X54345238Y-76024819D01*
X54345238Y-76024819D02*
X54107143Y-76024819D01*
X54107143Y-76024819D02*
X54011905Y-75977200D01*
X54011905Y-75977200D02*
X53964286Y-75929580D01*
X55583333Y-46429580D02*
X55535714Y-46477200D01*
X55535714Y-46477200D02*
X55392857Y-46524819D01*
X55392857Y-46524819D02*
X55297619Y-46524819D01*
X55297619Y-46524819D02*
X55154762Y-46477200D01*
X55154762Y-46477200D02*
X55059524Y-46381961D01*
X55059524Y-46381961D02*
X55011905Y-46286723D01*
X55011905Y-46286723D02*
X54964286Y-46096247D01*
X54964286Y-46096247D02*
X54964286Y-45953390D01*
X54964286Y-45953390D02*
X55011905Y-45762914D01*
X55011905Y-45762914D02*
X55059524Y-45667676D01*
X55059524Y-45667676D02*
X55154762Y-45572438D01*
X55154762Y-45572438D02*
X55297619Y-45524819D01*
X55297619Y-45524819D02*
X55392857Y-45524819D01*
X55392857Y-45524819D02*
X55535714Y-45572438D01*
X55535714Y-45572438D02*
X55583333Y-45620057D01*
X56440476Y-45858152D02*
X56440476Y-46524819D01*
X56202381Y-45477200D02*
X55964286Y-46191485D01*
X55964286Y-46191485D02*
X56583333Y-46191485D01*
X119211905Y-71854819D02*
X119211905Y-70854819D01*
X119211905Y-70854819D02*
X119450000Y-70854819D01*
X119450000Y-70854819D02*
X119592857Y-70902438D01*
X119592857Y-70902438D02*
X119688095Y-70997676D01*
X119688095Y-70997676D02*
X119735714Y-71092914D01*
X119735714Y-71092914D02*
X119783333Y-71283390D01*
X119783333Y-71283390D02*
X119783333Y-71426247D01*
X119783333Y-71426247D02*
X119735714Y-71616723D01*
X119735714Y-71616723D02*
X119688095Y-71711961D01*
X119688095Y-71711961D02*
X119592857Y-71807200D01*
X119592857Y-71807200D02*
X119450000Y-71854819D01*
X119450000Y-71854819D02*
X119211905Y-71854819D01*
X120354762Y-71283390D02*
X120259524Y-71235771D01*
X120259524Y-71235771D02*
X120211905Y-71188152D01*
X120211905Y-71188152D02*
X120164286Y-71092914D01*
X120164286Y-71092914D02*
X120164286Y-71045295D01*
X120164286Y-71045295D02*
X120211905Y-70950057D01*
X120211905Y-70950057D02*
X120259524Y-70902438D01*
X120259524Y-70902438D02*
X120354762Y-70854819D01*
X120354762Y-70854819D02*
X120545238Y-70854819D01*
X120545238Y-70854819D02*
X120640476Y-70902438D01*
X120640476Y-70902438D02*
X120688095Y-70950057D01*
X120688095Y-70950057D02*
X120735714Y-71045295D01*
X120735714Y-71045295D02*
X120735714Y-71092914D01*
X120735714Y-71092914D02*
X120688095Y-71188152D01*
X120688095Y-71188152D02*
X120640476Y-71235771D01*
X120640476Y-71235771D02*
X120545238Y-71283390D01*
X120545238Y-71283390D02*
X120354762Y-71283390D01*
X120354762Y-71283390D02*
X120259524Y-71331009D01*
X120259524Y-71331009D02*
X120211905Y-71378628D01*
X120211905Y-71378628D02*
X120164286Y-71473866D01*
X120164286Y-71473866D02*
X120164286Y-71664342D01*
X120164286Y-71664342D02*
X120211905Y-71759580D01*
X120211905Y-71759580D02*
X120259524Y-71807200D01*
X120259524Y-71807200D02*
X120354762Y-71854819D01*
X120354762Y-71854819D02*
X120545238Y-71854819D01*
X120545238Y-71854819D02*
X120640476Y-71807200D01*
X120640476Y-71807200D02*
X120688095Y-71759580D01*
X120688095Y-71759580D02*
X120735714Y-71664342D01*
X120735714Y-71664342D02*
X120735714Y-71473866D01*
X120735714Y-71473866D02*
X120688095Y-71378628D01*
X120688095Y-71378628D02*
X120640476Y-71331009D01*
X120640476Y-71331009D02*
X120545238Y-71283390D01*
D13*
%TO.C,J3*%
X31200000Y-87300000D02*
G75*
G03*
X31100000Y-87300000I-50000J0D01*
G01*
X31100000Y-87300000D02*
G75*
G03*
X31200000Y-87300000I50000J0D01*
G01*
X31200000Y-87300000D02*
X31200000Y-87300000D01*
X31100000Y-87300000D02*
X31100000Y-87300000D01*
D14*
X30100000Y-82250000D02*
X30100000Y-82600000D01*
X28600000Y-82250000D02*
X30100000Y-82250000D01*
X25100000Y-82250000D02*
X25900000Y-82250000D01*
X25100000Y-89750000D02*
X25100000Y-82250000D01*
X25900000Y-89750000D02*
X25100000Y-89750000D01*
X30100000Y-89750000D02*
X28600000Y-89750000D01*
X30100000Y-89400000D02*
X30100000Y-89750000D01*
D13*
%TO.C,IC1*%
X55260000Y-49015000D02*
X55260000Y-49015000D01*
X55260000Y-49115000D02*
X55260000Y-49115000D01*
D14*
X62750000Y-50115000D02*
X62750000Y-68115000D01*
X56000000Y-50115000D02*
X62750000Y-50115000D01*
X37250000Y-50115000D02*
X38000000Y-50115000D01*
X37250000Y-52615000D02*
X37250000Y-50115000D01*
X62750000Y-68115000D02*
X56000000Y-68115000D01*
X38000000Y-68115000D02*
X37250000Y-68115000D01*
X37250000Y-68115000D02*
X37250000Y-65615000D01*
D13*
X55260000Y-49115000D02*
G75*
G03*
X55260000Y-49015000I0J50000D01*
G01*
X55260000Y-49015000D02*
G75*
G03*
X55260000Y-49115000I0J-50000D01*
G01*
D15*
%TO.C,U1*%
X46887500Y-94010000D02*
X47687500Y-94010000D01*
X46887500Y-94010000D02*
X46087500Y-94010000D01*
X46887500Y-90890000D02*
X47687500Y-90890000D01*
X46887500Y-90890000D02*
X45087500Y-90890000D01*
%TO.C,D2*%
X41250000Y-97460000D02*
X43935000Y-97460000D01*
X43935000Y-95540000D02*
X41250000Y-95540000D01*
X43935000Y-97460000D02*
X43935000Y-95540000D01*
%TO.C,Q2*%
X52450000Y-72500000D02*
X50550000Y-72500000D01*
X51050000Y-74820000D02*
X52450000Y-74820000D01*
%TO.C,D10*%
X71350000Y-117250000D02*
X78650000Y-117250000D01*
X71350000Y-122750000D02*
X78650000Y-122750000D01*
X78650000Y-122750000D02*
X78650000Y-121600000D01*
%TO.C,R1*%
X33130000Y-88153641D02*
X33130000Y-87846359D01*
X32370000Y-88153641D02*
X32370000Y-87846359D01*
D14*
%TO.C,J1*%
X32500000Y-95550000D02*
X29075000Y-95550000D01*
X32500000Y-95550000D02*
X32500000Y-97600000D01*
X25651000Y-97304000D02*
X25651000Y-101696000D01*
X32500000Y-103450000D02*
X32500000Y-101400000D01*
X32500000Y-103450000D02*
X29075000Y-103450000D01*
X35134000Y-98431000D02*
G75*
G03*
X35134000Y-98431000I-52000J0D01*
G01*
D13*
%TO.C,IC2*%
X77022000Y-72797000D02*
X75222000Y-72797000D01*
X74422000Y-72797000D02*
X73022000Y-72772000D01*
X72422000Y-72972000D02*
X72422000Y-72972000D01*
X72422000Y-73072000D02*
X72422000Y-73072000D01*
X77022000Y-76747000D02*
X75422000Y-76747000D01*
X73822000Y-76747000D02*
X73022000Y-76747000D01*
X72422000Y-73072000D02*
G75*
G03*
X72422000Y-72972000I0J50000D01*
G01*
X72422000Y-72972000D02*
G75*
G03*
X72422000Y-73072000I0J-50000D01*
G01*
D15*
%TO.C,R8*%
X38120000Y-96596359D02*
X38120000Y-96903641D01*
X38880000Y-96596359D02*
X38880000Y-96903641D01*
D14*
%TO.C,S1*%
X59600000Y-101750000D02*
X59600000Y-101750000D01*
X56800000Y-99350000D02*
X56800000Y-101750000D01*
X59600000Y-99350000D02*
X59600000Y-101750000D01*
D15*
%TO.C,R3*%
X62163641Y-98120000D02*
X61856359Y-98120000D01*
X62163641Y-98880000D02*
X61856359Y-98880000D01*
%TO.C,C10*%
X78230000Y-69384420D02*
X78230000Y-69665580D01*
X79250000Y-69384420D02*
X79250000Y-69665580D01*
%TO.C,D11*%
X39650000Y-104100000D02*
X46950000Y-104100000D01*
X39650000Y-109600000D02*
X46950000Y-109600000D01*
X46950000Y-109600000D02*
X46950000Y-108450000D01*
%TO.C,D6*%
X71300000Y-27400000D02*
X78600000Y-27400000D01*
X71300000Y-32900000D02*
X78600000Y-32900000D01*
X78600000Y-32900000D02*
X78600000Y-31750000D01*
%TO.C,R7*%
X37870000Y-102436359D02*
X37870000Y-102743641D01*
X38630000Y-102436359D02*
X38630000Y-102743641D01*
%TO.C,C8*%
X80109420Y-73510000D02*
X80390580Y-73510000D01*
X80109420Y-72490000D02*
X80390580Y-72490000D01*
%TO.C,C2*%
X50490000Y-92134420D02*
X50490000Y-92415580D01*
X51510000Y-92134420D02*
X51510000Y-92415580D01*
%TO.C,C7*%
X36110000Y-100622164D02*
X36110000Y-100837836D01*
X35390000Y-100622164D02*
X35390000Y-100837836D01*
%TO.C,U3*%
X42637500Y-101260000D02*
X43437500Y-101260000D01*
X42637500Y-101260000D02*
X41837500Y-101260000D01*
X42637500Y-98140000D02*
X43437500Y-98140000D01*
X42637500Y-98140000D02*
X40837500Y-98140000D01*
%TO.C,R4*%
X49130000Y-74403641D02*
X49130000Y-74096359D01*
X48370000Y-74403641D02*
X48370000Y-74096359D01*
%TO.C,R13*%
X36053641Y-72920000D02*
X35746359Y-72920000D01*
X36053641Y-73680000D02*
X35746359Y-73680000D01*
%TO.C,R11*%
X67630000Y-74403641D02*
X67630000Y-74096359D01*
X66870000Y-74403641D02*
X66870000Y-74096359D01*
%TO.C,D3*%
X33710000Y-56937500D02*
X33710000Y-54252500D01*
X31790000Y-54252500D02*
X31790000Y-56937500D01*
X33710000Y-54252500D02*
X31790000Y-54252500D01*
%TO.C,D1*%
X39610000Y-88250000D02*
X35750000Y-88250000D01*
X39610000Y-90250000D02*
X35750000Y-90250000D01*
X39610000Y-90250000D02*
X39610000Y-88250000D01*
%TO.C,R9*%
X45870000Y-99106359D02*
X45870000Y-99413641D01*
X46630000Y-99106359D02*
X46630000Y-99413641D01*
%TO.C,D5*%
X39550000Y-40350000D02*
X46850000Y-40350000D01*
X39550000Y-45850000D02*
X46850000Y-45850000D01*
X46850000Y-45850000D02*
X46850000Y-44700000D01*
%TO.C,C6*%
X42760000Y-83640580D02*
X42760000Y-83359420D01*
X41740000Y-83640580D02*
X41740000Y-83359420D01*
%TO.C,C3*%
X53390000Y-91872164D02*
X53390000Y-92087836D01*
X54110000Y-91872164D02*
X54110000Y-92087836D01*
%TO.C,C9*%
X80770000Y-69359420D02*
X80770000Y-69640580D01*
X81790000Y-69359420D02*
X81790000Y-69640580D01*
%TO.C,C1*%
X40740000Y-89884420D02*
X40740000Y-90165580D01*
X41760000Y-89884420D02*
X41760000Y-90165580D01*
%TO.C,Q1*%
X33687500Y-94510000D02*
X34337500Y-94510000D01*
X33687500Y-94510000D02*
X33037500Y-94510000D01*
X33687500Y-91390000D02*
X34337500Y-91390000D01*
X33687500Y-91390000D02*
X32012500Y-91390000D01*
%TO.C,R2*%
X44106359Y-89380000D02*
X44413641Y-89380000D01*
X44106359Y-88620000D02*
X44413641Y-88620000D01*
%TO.C,R5*%
X55370000Y-73096359D02*
X55370000Y-73403641D01*
X56130000Y-73096359D02*
X56130000Y-73403641D01*
%TO.C,R12*%
X70380000Y-74403641D02*
X70380000Y-74096359D01*
X69620000Y-74403641D02*
X69620000Y-74096359D01*
%TO.C,U2*%
X39360000Y-86297500D02*
X39360000Y-85822500D01*
X39360000Y-82077500D02*
X39360000Y-82552500D01*
X38885000Y-86297500D02*
X39360000Y-86297500D01*
X38885000Y-82077500D02*
X39360000Y-82077500D01*
X35615000Y-86297500D02*
X35140000Y-86297500D01*
X35615000Y-82077500D02*
X35140000Y-82077500D01*
X35140000Y-86297500D02*
X35140000Y-85822500D01*
%TO.C,D9*%
X103150000Y-104100000D02*
X110450000Y-104100000D01*
X103150000Y-109600000D02*
X110450000Y-109600000D01*
X110450000Y-109600000D02*
X110450000Y-108450000D01*
%TO.C,R6*%
X35163641Y-102870000D02*
X34856359Y-102870000D01*
X35163641Y-103630000D02*
X34856359Y-103630000D01*
%TO.C,D4*%
X26350000Y-72250000D02*
X33650000Y-72250000D01*
X26350000Y-77750000D02*
X33650000Y-77750000D01*
X33650000Y-77750000D02*
X33650000Y-76600000D01*
%TO.C,D7*%
X103050000Y-40400000D02*
X110350000Y-40400000D01*
X103050000Y-45900000D02*
X110350000Y-45900000D01*
X110350000Y-45900000D02*
X110350000Y-44750000D01*
%TO.C,R10*%
X32913641Y-58120000D02*
X32606359Y-58120000D01*
X32913641Y-58880000D02*
X32606359Y-58880000D01*
%TO.C,C5*%
X53609420Y-77510000D02*
X53890580Y-77510000D01*
X53609420Y-76490000D02*
X53890580Y-76490000D01*
%TO.C,C4*%
X54359420Y-48010000D02*
X54640580Y-48010000D01*
X54359420Y-46990000D02*
X54640580Y-46990000D01*
%TO.C,D8*%
X116300000Y-72150000D02*
X123600000Y-72150000D01*
X116300000Y-77650000D02*
X123600000Y-77650000D01*
X123600000Y-77650000D02*
X123600000Y-76500000D01*
%TD*%
M02*
