M48
; DRILL file {KiCad 7.0.9} date Mon Dec 18 12:46:51 2023
; FORMAT={-:-/ absolute / metric / decimal}
; #@! TF.CreationDate,2023-12-18T12:46:51-05:00
; #@! TF.GenerationSoftware,Kicad,Pcbnew,7.0.9
; #@! TF.FileFunction,MixedPlating,1,2
FMAT,2
METRIC
; #@! TA.AperFunction,Plated,PTH,ViaDrill
T1C0.300
; #@! TA.AperFunction,Plated,PTH,ViaDrill
T2C0.400
; #@! TA.AperFunction,Plated,PTH,ComponentDrill
T3C1.430
; #@! TA.AperFunction,NonPlated,NPTH,ComponentDrill
T4C3.200
%
G90
G05
T1
X32.0Y-84.0
X32.5Y-79.25
X34.75Y-97.5
X34.75Y-98.75
X35.75Y-80.25
X37.0Y-93.75
X37.0Y-101.75
X38.75Y-92.0
X41.0Y-80.25
X42.5Y-92.5
X44.0Y-82.75
X45.75Y-110.75
X53.75Y-94.75
X61.5Y-96.25
X63.5Y-94.25
X75.0Y-74.5
X75.0Y-103.75
X75.0Y-106.5
X79.75Y-32.0
X79.75Y-121.5
X81.28Y-67.25
X83.0Y-73.0
X109.25Y-47.0
X109.25Y-110.75
X122.5Y-79.0
T2
X33.25Y-86.5
X34.75Y-53.5
X34.75Y-87.25
X37.25Y-87.25
X42.5Y-71.75
X43.5Y-70.001
X44.5Y-72.75
X46.75Y-70.75
X47.78Y-72.78
X48.0Y-44.75
X50.25Y-71.5
X53.75Y-43.5
X56.25Y-77.0
X57.0Y-47.5
X57.5Y-43.5
X58.75Y-83.0
X59.25Y-70.25
X60.25Y-73.782
X60.75Y-84.25
X62.75Y-71.25
X86.0Y-69.75
X87.25Y-68.5
T3
X27.25Y-82.05
X27.25Y-89.95
T4
X30.0Y-30.0
X30.0Y-120.0
X120.0Y-30.0
X120.0Y-120.0
T0
M30
