%TF.GenerationSoftware,KiCad,Pcbnew,7.0.9*%
%TF.CreationDate,2023-12-18T12:46:53-05:00*%
%TF.ProjectId,Coaster_KiCard,436f6173-7465-4725-9f4b-69436172642e,rev?*%
%TF.SameCoordinates,Original*%
%TF.FileFunction,Soldermask,Top*%
%TF.FilePolarity,Negative*%
%FSLAX46Y46*%
G04 Gerber Fmt 4.6, Leading zero omitted, Abs format (unit mm)*
G04 Created by KiCad (PCBNEW 7.0.9) date 2023-12-18 12:46:53*
%MOMM*%
%LPD*%
G01*
G04 APERTURE LIST*
G04 Aperture macros list*
%AMRoundRect*
0 Rectangle with rounded corners*
0 $1 Rounding radius*
0 $2 $3 $4 $5 $6 $7 $8 $9 X,Y pos of 4 corners*
0 Add a 4 corners polygon primitive as box body*
4,1,4,$2,$3,$4,$5,$6,$7,$8,$9,$2,$3,0*
0 Add four circle primitives for the rounded corners*
1,1,$1+$1,$2,$3*
1,1,$1+$1,$4,$5*
1,1,$1+$1,$6,$7*
1,1,$1+$1,$8,$9*
0 Add four rect primitives between the rounded corners*
20,1,$1+$1,$2,$3,$4,$5,0*
20,1,$1+$1,$4,$5,$6,$7,0*
20,1,$1+$1,$6,$7,$8,$9,0*
20,1,$1+$1,$8,$9,$2,$3,0*%
G04 Aperture macros list end*
%ADD10R,1.900000X0.875000*%
%ADD11R,1.550000X1.425000*%
%ADD12C,2.145000*%
%ADD13R,1.380000X0.450000*%
%ADD14R,0.900000X1.500000*%
%ADD15R,1.500000X0.900000*%
%ADD16R,0.900000X0.900000*%
%ADD17RoundRect,0.150000X-0.512500X-0.150000X0.512500X-0.150000X0.512500X0.150000X-0.512500X0.150000X0*%
%ADD18RoundRect,0.243750X0.243750X0.456250X-0.243750X0.456250X-0.243750X-0.456250X0.243750X-0.456250X0*%
%ADD19R,0.650000X0.400000*%
%ADD20RoundRect,0.135000X0.185000X-0.135000X0.185000X0.135000X-0.185000X0.135000X-0.185000X-0.135000X0*%
%ADD21R,3.500000X1.000000*%
%ADD22R,3.400000X1.500000*%
%ADD23R,0.805000X0.350000*%
%ADD24R,0.400000X0.805000*%
%ADD25RoundRect,0.135000X-0.185000X0.135000X-0.185000X-0.135000X0.185000X-0.135000X0.185000X0.135000X0*%
%ADD26R,1.000000X0.900000*%
%ADD27RoundRect,0.135000X0.135000X0.185000X-0.135000X0.185000X-0.135000X-0.185000X0.135000X-0.185000X0*%
%ADD28RoundRect,0.225000X-0.250000X0.225000X-0.250000X-0.225000X0.250000X-0.225000X0.250000X0.225000X0*%
%ADD29C,3.200000*%
%ADD30RoundRect,0.225000X-0.225000X-0.250000X0.225000X-0.250000X0.225000X0.250000X-0.225000X0.250000X0*%
%ADD31RoundRect,0.140000X-0.170000X0.140000X-0.170000X-0.140000X0.170000X-0.140000X0.170000X0.140000X0*%
%ADD32RoundRect,0.243750X-0.456250X0.243750X-0.456250X-0.243750X0.456250X-0.243750X0.456250X0.243750X0*%
%ADD33RoundRect,0.250000X0.300000X0.300000X-0.300000X0.300000X-0.300000X-0.300000X0.300000X-0.300000X0*%
%ADD34RoundRect,0.225000X0.250000X-0.225000X0.250000X0.225000X-0.250000X0.225000X-0.250000X-0.225000X0*%
%ADD35RoundRect,0.150000X-0.587500X-0.150000X0.587500X-0.150000X0.587500X0.150000X-0.587500X0.150000X0*%
%ADD36RoundRect,0.135000X-0.135000X-0.185000X0.135000X-0.185000X0.135000X0.185000X-0.135000X0.185000X0*%
%ADD37R,2.600000X2.600000*%
%ADD38RoundRect,0.062500X-0.062500X-0.350000X0.062500X-0.350000X0.062500X0.350000X-0.062500X0.350000X0*%
%ADD39RoundRect,0.062500X-0.350000X-0.062500X0.350000X-0.062500X0.350000X0.062500X-0.350000X0.062500X0*%
G04 APERTURE END LIST*
D10*
%TO.C,J3*%
X27250000Y-84812000D03*
X27250000Y-87188000D03*
D11*
X29825000Y-83513000D03*
X29825000Y-88487000D03*
D12*
X27250000Y-82050000D03*
X27250000Y-89950000D03*
D13*
X29910000Y-84700000D03*
X29910000Y-85350000D03*
X29910000Y-86000000D03*
X29910000Y-86650000D03*
X29910000Y-87300000D03*
%TD*%
D14*
%TO.C,IC1*%
X55260000Y-50365000D03*
X53990000Y-50365000D03*
X52720000Y-50365000D03*
X51450000Y-50365000D03*
X50180000Y-50365000D03*
X48910000Y-50365000D03*
X47640000Y-50365000D03*
X46370000Y-50365000D03*
X45100000Y-50365000D03*
X43830000Y-50365000D03*
X42560000Y-50365000D03*
X41290000Y-50365000D03*
X40020000Y-50365000D03*
X38750000Y-50365000D03*
D15*
X37500000Y-53400000D03*
X37500000Y-54670000D03*
X37500000Y-55940000D03*
X37500000Y-57210000D03*
X37500000Y-58480000D03*
X37500000Y-59750000D03*
X37500000Y-61020000D03*
X37500000Y-62290000D03*
X37500000Y-63560000D03*
X37500000Y-64830000D03*
D14*
X38750000Y-67865000D03*
X40020000Y-67865000D03*
X41290000Y-67865000D03*
X42560000Y-67865000D03*
X43830000Y-67865000D03*
X45100000Y-67865000D03*
X46370000Y-67865000D03*
X47640000Y-67865000D03*
X48910000Y-67865000D03*
X50180000Y-67865000D03*
X51450000Y-67865000D03*
X52720000Y-67865000D03*
X53990000Y-67865000D03*
X55260000Y-67865000D03*
D16*
X48940000Y-56215000D03*
X47540000Y-56215000D03*
X46140000Y-56215000D03*
X46140000Y-57615000D03*
X46140000Y-59015000D03*
X47540000Y-59015000D03*
X48940000Y-59015000D03*
X48940000Y-57615000D03*
X47540000Y-57615000D03*
%TD*%
D17*
%TO.C,U1*%
X48025000Y-91500000D03*
X48025000Y-93400000D03*
X45750000Y-93400000D03*
X45750000Y-92450000D03*
X45750000Y-91500000D03*
%TD*%
D18*
%TO.C,D2*%
X41312500Y-96500000D03*
X43187500Y-96500000D03*
%TD*%
D19*
%TO.C,Q2*%
X52700000Y-73010000D03*
X52700000Y-73660000D03*
X52700000Y-74310000D03*
X50800000Y-74310000D03*
X50800000Y-73660000D03*
X50800000Y-73010000D03*
%TD*%
D15*
%TO.C,D10*%
X72550000Y-118350000D03*
X72550000Y-121650000D03*
X77450000Y-121650000D03*
X77450000Y-118350000D03*
%TD*%
D20*
%TO.C,R1*%
X32750000Y-87490000D03*
X32750000Y-88510000D03*
%TD*%
D21*
%TO.C,J1*%
X32500000Y-98500000D03*
X32500000Y-100500000D03*
D22*
X26950000Y-96150000D03*
X26950000Y-102850000D03*
%TD*%
D23*
%TO.C,IC2*%
X73250000Y-73272000D03*
X73250000Y-74022000D03*
X73250000Y-74772000D03*
X73250000Y-75522000D03*
X73250000Y-76272000D03*
D24*
X74222000Y-76544000D03*
D23*
X76794000Y-76272000D03*
X76794000Y-75522000D03*
X76794000Y-74772000D03*
X76794000Y-74022000D03*
X76794000Y-73272000D03*
D24*
X74847000Y-73000000D03*
X75022000Y-76544000D03*
%TD*%
D25*
%TO.C,R8*%
X38500000Y-97260000D03*
X38500000Y-96240000D03*
%TD*%
D26*
%TO.C,S1*%
X59000000Y-102600000D03*
X57400000Y-102600000D03*
X57400000Y-98500000D03*
X59000000Y-98500000D03*
%TD*%
D27*
%TO.C,R3*%
X61500000Y-98500000D03*
X62520000Y-98500000D03*
%TD*%
D28*
%TO.C,C10*%
X78740000Y-70300000D03*
X78740000Y-68750000D03*
%TD*%
D29*
%TO.C,H4*%
X30000000Y-120000000D03*
%TD*%
D15*
%TO.C,D11*%
X40850000Y-105200000D03*
X40850000Y-108500000D03*
X45750000Y-108500000D03*
X45750000Y-105200000D03*
%TD*%
%TO.C,D6*%
X72500000Y-28500000D03*
X72500000Y-31800000D03*
X77400000Y-31800000D03*
X77400000Y-28500000D03*
%TD*%
D25*
%TO.C,R7*%
X38250000Y-103100000D03*
X38250000Y-102080000D03*
%TD*%
D29*
%TO.C,H2*%
X120000000Y-30000000D03*
%TD*%
D30*
%TO.C,C8*%
X81025000Y-73000000D03*
X79475000Y-73000000D03*
%TD*%
D28*
%TO.C,C2*%
X51000000Y-93050000D03*
X51000000Y-91500000D03*
%TD*%
D31*
%TO.C,C7*%
X35750000Y-100250000D03*
X35750000Y-101210000D03*
%TD*%
D17*
%TO.C,U3*%
X43775000Y-98750000D03*
X43775000Y-100650000D03*
X41500000Y-100650000D03*
X41500000Y-99700000D03*
X41500000Y-98750000D03*
%TD*%
D20*
%TO.C,R4*%
X48750000Y-73740000D03*
X48750000Y-74760000D03*
%TD*%
D27*
%TO.C,R13*%
X35390000Y-73300000D03*
X36410000Y-73300000D03*
%TD*%
D20*
%TO.C,R11*%
X67250000Y-73740000D03*
X67250000Y-74760000D03*
%TD*%
D32*
%TO.C,D3*%
X32750000Y-56875000D03*
X32750000Y-55000000D03*
%TD*%
D29*
%TO.C,H3*%
X120000000Y-120000000D03*
%TD*%
D33*
%TO.C,D1*%
X36000000Y-89250000D03*
X38800000Y-89250000D03*
%TD*%
D25*
%TO.C,R9*%
X46250000Y-99770000D03*
X46250000Y-98750000D03*
%TD*%
D15*
%TO.C,D5*%
X40750000Y-41450000D03*
X40750000Y-44750000D03*
X45650000Y-44750000D03*
X45650000Y-41450000D03*
%TD*%
D34*
%TO.C,C6*%
X42250000Y-82725000D03*
X42250000Y-84275000D03*
%TD*%
D31*
%TO.C,C3*%
X53750000Y-92460000D03*
X53750000Y-91500000D03*
%TD*%
D28*
%TO.C,C9*%
X81280000Y-70275000D03*
X81280000Y-68725000D03*
%TD*%
%TO.C,C1*%
X41250000Y-90800000D03*
X41250000Y-89250000D03*
%TD*%
D35*
%TO.C,Q1*%
X34625000Y-92950000D03*
X32750000Y-93900000D03*
X32750000Y-92000000D03*
%TD*%
D36*
%TO.C,R2*%
X44770000Y-89000000D03*
X43750000Y-89000000D03*
%TD*%
D25*
%TO.C,R5*%
X55750000Y-73760000D03*
X55750000Y-72740000D03*
%TD*%
D20*
%TO.C,R12*%
X70000000Y-73740000D03*
X70000000Y-74760000D03*
%TD*%
D37*
%TO.C,U2*%
X37250000Y-84187500D03*
D38*
X36000000Y-82250000D03*
X36500000Y-82250000D03*
X37000000Y-82250000D03*
X37500000Y-82250000D03*
X38000000Y-82250000D03*
X38500000Y-82250000D03*
D39*
X39187500Y-82937500D03*
X39187500Y-83437500D03*
X39187500Y-83937500D03*
X39187500Y-84437500D03*
X39187500Y-84937500D03*
X39187500Y-85437500D03*
D38*
X38500000Y-86125000D03*
X38000000Y-86125000D03*
X37500000Y-86125000D03*
X37000000Y-86125000D03*
X36500000Y-86125000D03*
X36000000Y-86125000D03*
D39*
X35312500Y-85437500D03*
X35312500Y-84937500D03*
X35312500Y-84437500D03*
X35312500Y-83937500D03*
X35312500Y-83437500D03*
X35312500Y-82937500D03*
%TD*%
D15*
%TO.C,D9*%
X104350000Y-105200000D03*
X104350000Y-108500000D03*
X109250000Y-108500000D03*
X109250000Y-105200000D03*
%TD*%
D27*
%TO.C,R6*%
X34500000Y-103250000D03*
X35520000Y-103250000D03*
%TD*%
D29*
%TO.C,H1*%
X30000000Y-30000000D03*
%TD*%
D15*
%TO.C,D4*%
X27550000Y-73350000D03*
X27550000Y-76650000D03*
X32450000Y-76650000D03*
X32450000Y-73350000D03*
%TD*%
%TO.C,D7*%
X104250000Y-41500000D03*
X104250000Y-44800000D03*
X109150000Y-44800000D03*
X109150000Y-41500000D03*
%TD*%
D27*
%TO.C,R10*%
X32250000Y-58500000D03*
X33270000Y-58500000D03*
%TD*%
D30*
%TO.C,C5*%
X54525000Y-77000000D03*
X52975000Y-77000000D03*
%TD*%
%TO.C,C4*%
X55275000Y-47500000D03*
X53725000Y-47500000D03*
%TD*%
D15*
%TO.C,D8*%
X117500000Y-73250000D03*
X117500000Y-76550000D03*
X122400000Y-76550000D03*
X122400000Y-73250000D03*
%TD*%
M02*
